<svg width="19" height="19" viewBox="0 0 19 19" fill="none" xmlns="http://www.w3.org/2000/svg">
<g clip-path="url(#clip0_134_114)">
<path d="M14.246 18.9655H5.06416C2.4589 18.9626 0.347672 16.8513 0.344727 14.2461V5.06425C0.347672 2.45899 2.4589 0.347764 5.06416 0.344818H14.2459C16.8512 0.347764 18.9625 2.45899 18.9654 5.06425V14.246C18.9625 16.8513 16.8512 18.9626 14.246 18.9655ZM5.06416 1.63026C3.16852 1.63241 1.63232 3.16862 1.63017 5.06425V14.246C1.63232 16.1417 3.16852 17.6779 5.06416 17.68H14.2459C16.1416 17.6779 17.6778 16.1417 17.6799 14.246V5.06425C17.6778 3.16862 16.1416 1.63241 14.2459 1.63026H5.06416Z" fill="white"/>
<path d="M9.65514 14.3733C7.04941 14.3733 4.93701 12.2609 4.93701 9.65514C4.93701 7.04937 7.04941 4.93701 9.65514 4.93701C12.2609 4.93701 14.3733 7.04941 14.3733 9.65514C14.3703 12.2597 12.2597 14.3703 9.65514 14.3733ZM9.65514 6.22249C7.75932 6.22249 6.22246 7.75936 6.22246 9.65517C6.22246 11.551 7.75932 13.0879 9.65514 13.0879C11.551 13.0879 13.0878 11.551 13.0878 9.65517V9.65514C13.0857 7.76023 11.55 6.2246 9.65514 6.22249Z" fill="white"/>
<path d="M14.9368 6.07559C13.9968 6.07559 13.2349 5.31363 13.2349 4.37369C13.2349 3.43374 13.9968 2.67178 14.9368 2.67178C15.8767 2.67178 16.6387 3.43374 16.6387 4.37369C16.6387 4.82506 16.4594 5.25791 16.1402 5.57708C15.8218 5.89731 15.3884 6.07682 14.9368 6.07559ZM14.9368 3.95723C14.7068 3.95723 14.5203 4.14369 14.5203 4.37369C14.5203 4.60368 14.7068 4.79014 14.9368 4.79014C15.1668 4.79014 15.3532 4.60368 15.3532 4.37369C15.3532 4.26323 15.3093 4.15729 15.2312 4.07917C15.1533 4.00084 15.0473 3.95694 14.9368 3.95723Z" fill="white"/>
</g>
<defs>
<clipPath id="clip0_134_114">
<rect width="18.6207" height="18.6207" fill="white" transform="translate(0.344727 0.344818)"/>
</clipPath>
</defs>
</svg>
