<svg width="24" height="24" viewBox="0 0 24 24" fill="none" xmlns="http://www.w3.org/2000/svg">
<g clip-path="url(#clip0_134_102)">
<path d="M21.921 18.4376H18.6401C18.0893 18.4376 17.5725 18.2234 17.1835 17.8344L15.2745 15.9254C15.1182 15.7691 14.9012 15.679 14.6805 15.679C14.2171 15.679 13.8401 16.056 13.8401 16.5195V17.3075C13.8401 17.931 13.3334 18.4376 12.7099 18.4376H9.70121C7.59546 18.4376 4.21339 13.7075 1.74627 9.73969C1.235 8.9167 0.965576 7.9659 0.965576 6.99118V6.7567C0.965576 6.09923 1.50075 5.56406 2.15822 5.56406H5.10351C5.27638 5.56406 5.43546 5.66153 5.51362 5.81601C6.16006 7.09233 7.98259 10.5507 8.6465 11.2156C8.81569 11.3838 8.97845 11.4831 9.08144 11.4629C9.14213 11.4574 9.19914 11.4188 9.24144 11.3792V7.88773C9.24144 7.4013 9.05201 6.94521 8.70811 6.6013L8.45615 6.34934C8.32466 6.21785 8.28512 6.02015 8.35684 5.84819C8.42765 5.67624 8.59592 5.56406 8.78167 5.56406H12.8332C13.3876 5.56406 13.8391 6.01555 13.8391 6.57003V11.2735C14.0939 11.3912 14.5499 11.5254 14.9104 11.2008C15.2957 10.8514 16.2566 8.93601 17.3564 6.31992C17.5495 5.86107 17.9973 5.56406 18.4975 5.56406H21.7233C22.446 5.56406 23.0345 6.15256 23.0345 6.87624C23.0345 7.61647 22.7798 8.34291 22.3173 8.9213L19.3564 12.6224V13.1907L22.7072 16.5415C23.0263 16.8606 23.121 17.336 22.9481 17.7526C22.7752 18.1682 22.3725 18.4376 21.921 18.4376ZM14.6796 14.7595C15.1495 14.7595 15.5918 14.9424 15.9247 15.2753L17.8336 17.1843C18.046 17.3967 18.3403 17.5181 18.6401 17.5181H21.921C22.0332 17.5181 22.0801 17.4436 22.0984 17.3995C22.1168 17.3553 22.1362 17.2689 22.0571 17.1898L18.572 13.7047C18.4856 13.6192 18.4368 13.5024 18.4368 13.3801V12.4606C18.4368 12.3558 18.4727 12.2546 18.5371 12.1728L21.5991 8.34567C21.932 7.93095 22.115 7.40865 22.115 6.87624C22.115 6.66015 21.9394 6.4836 21.7224 6.4836H18.4966C18.3679 6.4836 18.252 6.559 18.2033 6.67578C17.3407 8.72544 16.1766 11.2928 15.5265 11.8813C14.6741 12.6528 13.5752 12.2408 13.1145 11.9162C12.9922 11.8316 12.9196 11.691 12.9196 11.5411V6.57003C12.9196 6.52222 12.881 6.4836 12.8332 6.4836H9.77569C10.0267 6.90383 10.161 7.38567 10.161 7.88773V11.5411C10.161 11.6247 10.1389 11.7066 10.0957 11.7774C10.0635 11.8316 9.76374 12.3061 9.1973 12.3751C8.7927 12.4266 8.38535 12.2546 7.99638 11.8657C7.1973 11.0666 5.36006 7.53555 4.82121 6.48268H2.15822C2.00742 6.4836 1.88512 6.60681 1.88512 6.7567V6.99118C1.88512 7.79486 2.10765 8.57739 2.52788 9.25417C5.69661 14.3512 8.44512 17.5181 9.70121 17.5181H12.709C12.8249 17.5181 12.9196 17.4234 12.9196 17.3075V16.5195C12.9196 15.5493 13.7095 14.7595 14.6796 14.7595Z" fill="#E8F2FB" stroke="#E8F2FB" stroke-width="0.344828"/>
</g>
<defs>
<clipPath id="clip0_134_102">
<rect width="23.4483" height="22.069" fill="white" transform="translate(0.275879 0.965515)"/>
</clipPath>
</defs>
</svg>
