<svg width="20" height="19" viewBox="0 0 20 19" fill="none" xmlns="http://www.w3.org/2000/svg">
<path fill-rule="evenodd" clip-rule="evenodd" d="M10.2149 18.9458C8.25212 18.9458 7.34 18.6724 5.75452 17.5788C4.75166 18.8091 1.57593 19.7705 1.43744 18.1256C1.43744 16.8908 1.1509 15.8474 0.826167 14.7083C0.439349 13.3049 0 11.742 0 9.47745C0 4.06892 4.65137 0 10.1623 0C15.6781 0 19.9999 4.26941 19.9999 9.52757C20.0185 14.7044 15.6406 18.9182 10.2149 18.9458ZM10.2961 4.67493C7.6122 4.5428 5.52052 6.31526 5.05729 9.09471C4.67525 11.3957 5.35337 14.1979 5.93121 14.3438C6.20819 14.4075 6.90542 13.8699 7.34 13.4552C8.05859 13.9289 8.89538 14.2134 9.76597 14.28C12.5469 14.4076 14.9231 12.3876 15.1098 9.73717C15.2185 7.08113 13.0774 4.83148 10.2961 4.67949L10.2961 4.67493Z" fill="white"/>
</svg>
