<svg width="24" height="18" viewBox="0 0 24 18" fill="none" xmlns="http://www.w3.org/2000/svg">
<path d="M22.5185 3.55106C22.0771 2.15717 20.6166 1.31301 19.2725 1.11947C14.4378 0.592379 9.56232 0.592379 4.72766 1.11947C3.38352 1.31301 1.919 2.14893 1.48166 3.55106C0.793549 7.14937 0.793549 10.8507 1.48166 14.449C1.92302 15.8408 3.38352 16.687 4.72766 16.8806C9.56232 17.4076 14.4378 17.4076 19.2725 16.8806C20.6166 16.687 22.0811 15.8511 22.5185 14.449C23.2066 10.8507 23.2066 7.14937 22.5185 3.55106ZM9.35993 13.3392V4.65877L16.2451 8.99898C13.924 10.4629 11.671 11.8815 9.35993 13.3392Z" fill="white"/>
</svg>
