<svg width="109" height="26" viewBox="0 0 109 26" fill="none" xmlns="http://www.w3.org/2000/svg">
<path d="M103.959 23.4254V16.8604H109V18.1635H105.14L105.496 17.8193V23.4254H103.959Z" fill="#87878E"/>
<path d="M95.8879 23.4254V16.8604H97.4247V19.5282H100.732V16.8604H102.269V23.4254H100.732V20.8314H97.4247V23.4254H95.8879Z" fill="#87878E"/>
<path d="M87.6244 23.4254V16.8604H89.1612V21.1879L92.7879 16.8604H94.1895V23.4254H92.6527V19.0979L89.0382 23.4254H87.6244Z" fill="#87878E"/>
<path d="M83.0428 23.4254V17.7947L83.3993 18.1635H80.7314V16.8604H86.8785V18.1635H84.223L84.5795 17.7947V23.4254H83.0428Z" fill="#87878E"/>
<path d="M77.5323 23.511C76.8028 23.511 76.1635 23.3676 75.6144 23.0808C75.0735 22.7857 74.6514 22.3841 74.3481 21.8759C74.053 21.3678 73.9055 20.7899 73.9055 20.1424C73.9055 19.4868 74.0489 18.9089 74.3358 18.409C74.6309 17.9008 75.0325 17.5033 75.5406 17.2164C76.057 16.9296 76.643 16.7861 77.2987 16.7861C77.938 16.7861 78.5076 16.9255 79.0076 17.2041C79.5076 17.4828 79.901 17.8762 80.1878 18.3844C80.4747 18.8925 80.6181 19.4909 80.6181 20.1793C80.6181 20.2449 80.614 20.3187 80.6058 20.4006C80.6058 20.4826 80.6017 20.5604 80.5936 20.6342H75.1226V19.6138H79.7821L79.1797 19.9334C79.1879 19.5564 79.11 19.2245 78.9461 18.9376C78.7822 18.6507 78.5568 18.4254 78.2699 18.2614C77.9913 18.0975 77.6675 18.0155 77.2987 18.0155C76.9217 18.0155 76.5897 18.0975 76.3029 18.2614C76.0242 18.4254 75.8029 18.6548 75.639 18.9499C75.4833 19.2368 75.4054 19.5769 75.4054 19.9703V20.2162C75.4054 20.6096 75.4956 20.958 75.6759 21.2612C75.8562 21.5645 76.1103 21.7981 76.4381 21.962C76.766 22.1259 77.143 22.2079 77.5692 22.2079C77.938 22.2079 78.2699 22.1505 78.565 22.0357C78.8601 21.921 79.1223 21.7407 79.3518 21.4948L80.1755 22.4415C79.8805 22.7857 79.5076 23.0521 79.0568 23.2406C78.6142 23.4209 78.106 23.511 77.5323 23.511Z" fill="#87878E"/>
<path d="M72.165 23.4254L69.7922 20.2781L71.0462 19.5036L73.9722 23.4254H72.165ZM67.4563 23.4254V16.8604H68.9931V23.4254H67.4563ZM68.5382 20.7945V19.5159H70.7634V20.7945H68.5382ZM71.1937 20.3273L69.7553 20.1552L72.165 16.8604H73.8124L71.1937 20.3273Z" fill="#87878E"/>
<path d="M62.9639 23.511C62.4312 23.511 61.9435 23.3881 61.5009 23.1422C61.0665 22.8963 60.7182 22.5275 60.4559 22.0357C60.2018 21.5358 60.0748 20.9047 60.0748 20.1424C60.0748 19.372 60.1977 18.7409 60.4436 18.2491C60.6977 17.7574 61.0419 17.3926 61.4763 17.155C61.9107 16.9091 62.4066 16.7861 62.9639 16.7861C63.6114 16.7861 64.181 16.9255 64.6728 17.2041C65.1728 17.4828 65.5662 17.8721 65.853 18.3721C66.1481 18.872 66.2956 19.4622 66.2956 20.1424C66.2956 20.8227 66.1481 21.4169 65.853 21.9251C65.5662 22.4251 65.1728 22.8144 64.6728 23.093C64.181 23.3717 63.6114 23.511 62.9639 23.511ZM59.3248 25.8101V16.8599H60.7878V18.409L60.7387 20.1547L60.8616 21.9005V25.8101H59.3248ZM62.7918 22.1956C63.1606 22.1956 63.4885 22.1136 63.7753 21.9497C64.0704 21.7858 64.304 21.5481 64.4761 21.2366C64.6482 20.9252 64.7343 20.5604 64.7343 20.1424C64.7343 19.7162 64.6482 19.3515 64.4761 19.0483C64.304 18.7368 64.0704 18.4991 63.7753 18.3352C63.4885 18.1713 63.1606 18.0893 62.7918 18.0893C62.423 18.0893 62.091 18.1713 61.796 18.3352C61.5009 18.4991 61.2673 18.7368 61.0952 19.0483C60.9231 19.3515 60.837 19.7162 60.837 20.1424C60.837 20.5604 60.9231 20.9252 61.0952 21.2366C61.2673 21.5481 61.5009 21.7858 61.796 21.9497C62.091 22.1136 62.423 22.1956 62.7918 22.1956Z" fill="#87878E"/>
<path d="M56.3412 23.425V22.0972L56.2551 21.8145V19.4909C56.2551 19.0401 56.1199 18.6917 55.8494 18.4458C55.5789 18.1918 55.1691 18.0647 54.62 18.0647C54.2512 18.0647 53.8864 18.1221 53.5258 18.2368C53.1734 18.3516 52.8742 18.5114 52.6283 18.7163L52.0259 17.5975C52.3784 17.3271 52.7964 17.1263 53.2799 16.9951C53.7717 16.8558 54.2799 16.7861 54.8044 16.7861C55.7552 16.7861 56.4887 17.0156 57.0051 17.4746C57.5296 17.9254 57.7919 18.6262 57.7919 19.5769V23.425H56.3412ZM54.2758 23.511C53.784 23.511 53.3537 23.4291 52.9849 23.2652C52.6161 23.093 52.3292 22.8595 52.1243 22.5644C51.9276 22.2611 51.8292 21.921 51.8292 21.544C51.8292 21.1752 51.9153 20.8432 52.0874 20.5482C52.2677 20.2531 52.5587 20.0195 52.9603 19.8474C53.3619 19.6753 53.8946 19.5892 54.5585 19.5892H56.4641V20.6096H54.6692C54.1446 20.6096 53.7922 20.6957 53.6119 20.8678C53.4316 21.0317 53.3414 21.2366 53.3414 21.4825C53.3414 21.7612 53.4521 21.9825 53.6734 22.1464C53.8946 22.3103 54.202 22.3923 54.5954 22.3923C54.9724 22.3923 55.3085 22.3062 55.6035 22.1341C55.9068 21.962 56.124 21.7079 56.2551 21.3719L56.5133 22.2939C56.3658 22.6791 56.0994 22.9783 55.7142 23.1914C55.3372 23.4045 54.8577 23.511 54.2758 23.511Z" fill="#87878E"/>
<path d="M42.8219 23.4254V16.8604H44.4324L47.0757 21.5198H46.4364L49.2149 16.8604H50.6533L50.6656 23.4254H49.2763V18.5078L49.5222 18.6676L47.0634 22.737H46.3995L43.9284 18.5569L44.2234 18.4832V23.4254H42.8219Z" fill="#87878E"/>
<path d="M38.1036 20.6463V19.3677H41.4845V20.6463H38.1036Z" fill="#87878E"/>
<path d="M35.2506 23.425V14.3027H36.7874V23.425H35.2506Z" fill="#87878E"/>
<path d="M32.1965 23.425V22.0972L32.1105 21.8145V19.4909C32.1105 19.0401 31.9752 18.6917 31.7048 18.4458C31.4343 18.1918 31.0245 18.0647 30.4753 18.0647C30.1065 18.0647 29.7418 18.1221 29.3812 18.2368C29.0287 18.3516 28.7296 18.5114 28.4837 18.7163L27.8813 17.5975C28.2337 17.3271 28.6517 17.1263 29.1353 16.9951C29.6271 16.8558 30.1352 16.7861 30.6598 16.7861C31.6105 16.7861 32.3441 17.0156 32.8604 17.4746C33.385 17.9254 33.6472 18.6262 33.6472 19.5769V23.425H32.1965ZM30.1311 23.511C29.6393 23.511 29.209 23.4291 28.8402 23.2652C28.4714 23.093 28.1845 22.8595 27.9796 22.5644C27.7829 22.2611 27.6846 21.921 27.6846 21.544C27.6846 21.1752 27.7706 20.8432 27.9427 20.5482C28.1231 20.2531 28.414 20.0195 28.8156 19.8474C29.2172 19.6753 29.75 19.5892 30.4139 19.5892H32.3195V20.6096H30.5245C30 20.6096 29.6475 20.6957 29.4672 20.8678C29.2869 21.0317 29.1968 21.2366 29.1968 21.4825C29.1968 21.7612 29.3074 21.9825 29.5287 22.1464C29.75 22.3103 30.0573 22.3923 30.4508 22.3923C30.8278 22.3923 31.1638 22.3062 31.4589 22.1341C31.7621 21.962 31.9793 21.7079 32.1105 21.3719L32.3687 22.2939C32.2211 22.6791 31.9547 22.9783 31.5695 23.1914C31.1925 23.4045 30.713 23.511 30.1311 23.511Z" fill="#87878E"/>
<path d="M25.7812 23.5115C25.0599 23.5115 24.5026 23.3271 24.1091 22.9583C23.7157 22.5813 23.519 22.028 23.519 21.2986V15.4097H25.0558V21.2617C25.0558 21.5731 25.1337 21.8149 25.2894 21.9871C25.4533 22.1592 25.6787 22.2452 25.9656 22.2452C26.3098 22.2452 26.5967 22.1551 26.8262 21.9748L27.2565 23.0689C27.0761 23.2165 26.8548 23.3271 26.5926 23.4009C26.3303 23.4746 26.0598 23.5115 25.7812 23.5115ZM22.4371 18.139V16.9096H26.8139V18.139H22.4371Z" fill="#87878E"/>
<path d="M20.125 23.4252V16.8601H21.6618V23.4252H20.125ZM20.8996 15.7782C20.6127 15.7782 20.375 15.6881 20.1865 15.5077C20.0062 15.3274 19.916 15.1102 19.916 14.8561C19.916 14.5939 20.0062 14.3767 20.1865 14.2046C20.375 14.0242 20.6127 13.9341 20.8996 13.9341C21.1864 13.9341 21.42 14.0201 21.6003 14.1923C21.7888 14.3562 21.8831 14.5652 21.8831 14.8193C21.8831 15.0897 21.7929 15.3192 21.6126 15.5077C21.4323 15.6881 21.1946 15.7782 20.8996 15.7782Z" fill="#87878E"/>
<path d="M14.9326 25.8961C14.3261 25.8961 13.7319 25.8142 13.15 25.6502C12.5763 25.4945 12.105 25.265 11.7362 24.9618L12.4246 23.8061C12.7115 24.0438 13.0721 24.2323 13.5065 24.3716C13.9491 24.5192 14.3958 24.5929 14.8466 24.5929C15.5678 24.5929 16.0965 24.4249 16.4325 24.0889C16.7686 23.761 16.9366 23.2652 16.9366 22.6013V21.4333L17.0595 19.9457L17.0104 18.4581V16.8599H18.4734V22.4292C18.4734 23.6176 18.1701 24.4905 17.5636 25.0478C16.9571 25.6134 16.0801 25.8961 14.9326 25.8961ZM14.7359 23.1299C14.113 23.1299 13.5475 22.9988 13.0393 22.7365C12.5394 22.466 12.1419 22.0931 11.8468 21.6177C11.5599 21.1424 11.4165 20.585 11.4165 19.9457C11.4165 19.3146 11.5599 18.7614 11.8468 18.286C12.1419 17.8106 12.5394 17.4418 13.0393 17.1795C13.5475 16.9173 14.113 16.7861 14.7359 16.7861C15.2933 16.7861 15.7932 16.8968 16.2358 17.1181C16.6784 17.3394 17.0308 17.6836 17.2931 18.1508C17.5636 18.618 17.6988 19.2163 17.6988 19.9457C17.6988 20.6752 17.5636 21.2776 17.2931 21.753C17.0308 22.2202 16.6784 22.5685 16.2358 22.798C15.7932 23.0193 15.2933 23.1299 14.7359 23.1299ZM14.9695 21.8267C15.3547 21.8267 15.699 21.7489 16.0022 21.5932C16.3055 21.4292 16.5391 21.2079 16.703 20.9293C16.8751 20.6424 16.9612 20.3146 16.9612 19.9457C16.9612 19.5769 16.8751 19.2532 16.703 18.9745C16.5391 18.6876 16.3055 18.4704 16.0022 18.3229C15.699 18.1672 15.3547 18.0893 14.9695 18.0893C14.5843 18.0893 14.236 18.1672 13.9245 18.3229C13.6213 18.4704 13.3836 18.6876 13.2115 18.9745C13.0475 19.2532 12.9656 19.5769 12.9656 19.9457C12.9656 20.3146 13.0475 20.6424 13.2115 20.9293C13.3836 21.2079 13.6213 21.4292 13.9245 21.5932C14.236 21.7489 14.5843 21.8267 14.9695 21.8267Z" fill="#87878E"/>
<path d="M8.7726 23.4252V16.8601H10.3094V23.4252H8.7726ZM9.54713 15.7782C9.26027 15.7782 9.02258 15.6881 8.83407 15.5077C8.65376 15.3274 8.5636 15.1102 8.5636 14.8561C8.5636 14.5939 8.65376 14.3767 8.83407 14.2046C9.02258 14.0242 9.26027 13.9341 9.54713 13.9341C9.834 13.9341 10.0676 14.0201 10.2479 14.1923C10.4364 14.3562 10.5307 14.5652 10.5307 14.8193C10.5307 15.0897 10.4405 15.3192 10.2602 15.5077C10.0799 15.6881 9.84219 15.7782 9.54713 15.7782Z" fill="#87878E"/>
<path d="M3.47971 23.5111C2.84861 23.5111 2.27898 23.3717 1.77082 23.0931C1.27085 22.8062 0.877439 22.4128 0.590575 21.9128C0.30371 21.4129 0.160278 20.8227 0.160278 20.1425C0.160278 19.4622 0.30371 18.8721 0.590575 18.3721C0.877439 17.8721 1.27085 17.4828 1.77082 17.2042C2.27898 16.9255 2.84861 16.7862 3.47971 16.7862C4.02885 16.7862 4.52061 16.9091 4.95501 17.155C5.3894 17.3927 5.73364 17.7574 5.98772 18.2492C6.2418 18.7409 6.36884 19.372 6.36884 20.1425C6.36884 20.9047 6.2459 21.5358 6.00001 22.0358C5.75413 22.5275 5.41399 22.8964 4.9796 23.1422C4.5452 23.3881 4.04524 23.5111 3.47971 23.5111ZM3.66412 22.1956C4.03295 22.1956 4.36079 22.1136 4.64765 21.9497C4.94271 21.7858 5.1763 21.5481 5.34842 21.2367C5.52874 20.9252 5.61889 20.5605 5.61889 20.1425C5.61889 19.7163 5.52874 19.3515 5.34842 19.0483C5.1763 18.7368 4.94271 18.4991 4.64765 18.3352C4.36079 18.1713 4.03295 18.0893 3.66412 18.0893C3.29529 18.0893 2.96335 18.1713 2.66829 18.3352C2.38143 18.4991 2.14784 18.7368 1.96752 19.0483C1.7954 19.3515 1.70934 19.7163 1.70934 20.1425C1.70934 20.5605 1.7954 20.9252 1.96752 21.2367C2.14784 21.5481 2.38143 21.7858 2.66829 21.9497C2.96335 22.1136 3.29529 22.1956 3.66412 22.1956ZM5.65578 23.425V21.8759L5.71725 20.1302L5.59431 18.3844V14.3027H7.11878V23.425H5.65578Z" fill="#87878E"/>
<path d="M79.6869 9.23964V2.67455H81.2237V7.0021L84.8504 2.67455H86.252V9.23964H84.7152V4.91209L81.1007 9.23964H79.6869ZM82.8711 1.90002C82.2154 1.90002 81.7113 1.74839 81.3589 1.44513C81.0065 1.13368 80.8261 0.682894 80.818 0.0927734H81.8384C81.8466 0.387834 81.9367 0.621423 82.1088 0.793541C82.2892 0.96566 82.5391 1.05172 82.8588 1.05172C83.1702 1.05172 83.4161 0.96566 83.5964 0.793541C83.7849 0.621423 83.8833 0.387834 83.8915 0.0927734H84.9365C84.9283 0.682894 84.7439 1.13368 84.3833 1.44513C84.0308 1.74839 83.5268 1.90002 82.8711 1.90002Z" fill="#87878E"/>
<path d="M76.4532 9.2399V2.6748H77.99V9.2399H76.4532ZM73.0231 4.83858C73.8673 4.83858 74.5066 5.02709 74.941 5.40411C75.3836 5.78113 75.6049 6.31388 75.6049 7.00236C75.6049 7.71542 75.359 8.27275 74.8673 8.67436C74.3837 9.06778 73.6952 9.26039 72.8018 9.25219L69.8267 9.2399V2.6748H71.3634V4.82629L73.0231 4.83858ZM72.6666 8.12113C73.1174 8.12932 73.4616 8.03507 73.6993 7.83836C73.937 7.64165 74.0559 7.35479 74.0559 6.97777C74.0559 6.60075 73.937 6.33027 73.6993 6.16635C73.4698 5.99423 73.1256 5.90408 72.6666 5.89588L71.3634 5.88359V8.10883L72.6666 8.12113Z" fill="#87878E"/>
<path d="M61.7554 9.2399V2.6748H63.2921V5.34264H66.5993V2.6748H68.136V9.2399H66.5993V6.64582H63.2921V9.2399H61.7554Z" fill="#87878E"/>
<path d="M57.1735 9.2399V3.60916L57.53 3.97799H54.8622V2.6748H61.0093V3.97799H58.3537L58.7103 3.60916V9.2399H57.1735Z" fill="#87878E"/>
<path d="M52.0696 9.32599C51.3811 9.32599 50.7664 9.18256 50.2255 8.89569C49.6927 8.60063 49.2747 8.19902 48.9715 7.69086C48.6682 7.1827 48.5166 6.60488 48.5166 5.95738C48.5166 5.3017 48.6682 4.72387 48.9715 4.22391C49.2747 3.71575 49.6927 3.31823 50.2255 3.03137C50.7664 2.74451 51.3811 2.60107 52.0696 2.60107C52.7089 2.60107 53.2704 2.73221 53.7539 2.99449C54.2457 3.24857 54.6186 3.62559 54.8727 4.12555L53.6925 4.81403C53.4957 4.50257 53.254 4.27308 52.9671 4.12555C52.6884 3.97802 52.3852 3.90426 52.0573 3.90426C51.6803 3.90426 51.3402 3.98622 51.0369 4.15014C50.7337 4.31406 50.496 4.55175 50.3238 4.8632C50.1517 5.16646 50.0657 5.53119 50.0657 5.95738C50.0657 6.38358 50.1517 6.75241 50.3238 7.06386C50.496 7.36712 50.7337 7.60071 51.0369 7.76463C51.3402 7.92855 51.6803 8.01051 52.0573 8.01051C52.3852 8.01051 52.6884 7.93675 52.9671 7.78922C53.254 7.64169 53.4957 7.4122 53.6925 7.10074L54.8727 7.78922C54.6186 8.28098 54.2457 8.6621 53.7539 8.93258C53.2704 9.19485 52.7089 9.32599 52.0696 9.32599Z" fill="#87878E"/>
<path d="M44.6843 9.32599C43.9548 9.32599 43.3155 9.18256 42.7664 8.89569C42.2254 8.60063 41.8033 8.19902 41.5001 7.69086C41.205 7.1827 41.0575 6.60488 41.0575 5.95738C41.0575 5.3017 41.2009 4.72387 41.4878 4.22391C41.7829 3.71575 42.1845 3.31823 42.6926 3.03137C43.209 2.74451 43.795 2.60107 44.4507 2.60107C45.09 2.60107 45.6596 2.74041 46.1596 3.01908C46.6595 3.29774 47.053 3.69116 47.3398 4.19932C47.6267 4.70748 47.7701 5.30579 47.7701 5.99427C47.7701 6.05984 47.766 6.1336 47.7578 6.21556C47.7578 6.29752 47.7537 6.37539 47.7455 6.44915H42.2746V5.42874H46.9341L46.3317 5.74838C46.3399 5.37136 46.262 5.03942 46.0981 4.75256C45.9342 4.46569 45.7088 4.2403 45.4219 4.07638C45.1433 3.91245 44.8195 3.83049 44.4507 3.83049C44.0737 3.83049 43.7417 3.91245 43.4549 4.07638C43.1762 4.2403 42.9549 4.46979 42.791 4.76485C42.6352 5.05171 42.5574 5.39185 42.5574 5.78527V6.03115C42.5574 6.42456 42.6475 6.7729 42.8279 7.07616C43.0082 7.37941 43.2623 7.613 43.5901 7.77692C43.9179 7.94085 44.295 8.02281 44.7212 8.02281C45.09 8.02281 45.4219 7.96543 45.717 7.85069C46.0121 7.73594 46.2743 7.55563 46.5038 7.30974L47.3275 8.2564C47.0325 8.60063 46.6595 8.86701 46.2088 9.05552C45.7662 9.23583 45.258 9.32599 44.6843 9.32599Z" fill="#87878E"/>
<path d="M33.0129 9.2276L33.0867 7.93671C33.1441 7.94491 33.1974 7.95311 33.2465 7.9613C33.2957 7.9695 33.3408 7.9736 33.3818 7.9736C33.6358 7.9736 33.8326 7.89573 33.9719 7.74001C34.1112 7.58428 34.2137 7.37528 34.2792 7.113C34.353 6.84253 34.4022 6.54337 34.4268 6.21553C34.4596 5.87949 34.4841 5.54345 34.5005 5.20741L34.6112 2.6748H39.9223V9.2399H38.3855V3.55999L38.742 3.97799H35.6193L35.9513 3.54769L35.8652 5.28117C35.8406 5.8631 35.7914 6.40404 35.7177 6.904C35.6521 7.39577 35.5455 7.82607 35.398 8.19489C35.2587 8.56372 35.062 8.85058 34.8079 9.05548C34.562 9.26039 34.2465 9.36284 33.8612 9.36284C33.7383 9.36284 33.6031 9.35054 33.4555 9.32595C33.3162 9.30137 33.1687 9.26858 33.0129 9.2276Z" fill="#87878E"/>
<path d="M25.9725 9.2399V2.6748H32.2672V9.2399H30.7427V3.62146L31.0992 3.97799H27.1528L27.5093 3.62146V9.2399H25.9725Z" fill="#87878E"/>
<path d="M16.4363 9.2399V2.6748H18.0468L20.6901 7.3343H20.0508L22.8293 2.6748H24.2677L24.28 9.2399H22.8907V4.32222L23.1366 4.48205L20.6778 8.55142H20.0139L17.5428 4.3714L17.8378 4.29764V9.2399H16.4363Z" fill="#87878E"/>
<path d="M11.7833 9.32599C11.1112 9.32599 10.5129 9.18256 9.98834 8.89569C9.46379 8.60063 9.04989 8.19902 8.74663 7.69086C8.44338 7.1827 8.29175 6.60488 8.29175 5.95738C8.29175 5.3017 8.44338 4.72387 8.74663 4.22391C9.04989 3.71575 9.46379 3.31823 9.98834 3.03137C10.5129 2.74451 11.1112 2.60107 11.7833 2.60107C12.4636 2.60107 13.066 2.74451 13.5905 3.03137C14.1233 3.31823 14.5372 3.71165 14.8323 4.21161C15.1355 4.71157 15.2871 5.2935 15.2871 5.95738C15.2871 6.60488 15.1355 7.1827 14.8323 7.69086C14.5372 8.19902 14.1233 8.60063 13.5905 8.89569C13.066 9.18256 12.4636 9.32599 11.7833 9.32599ZM11.7833 8.01051C12.1603 8.01051 12.4964 7.92855 12.7914 7.76463C13.0865 7.60071 13.316 7.36302 13.4799 7.05157C13.652 6.74011 13.7381 6.37539 13.7381 5.95738C13.7381 5.53119 13.652 5.16646 13.4799 4.8632C13.316 4.55175 13.0865 4.31406 12.7914 4.15014C12.4964 3.98622 12.1644 3.90426 11.7956 3.90426C11.4186 3.90426 11.0825 3.98622 10.7875 4.15014C10.5006 4.31406 10.2711 4.55175 10.099 4.8632C9.92687 5.16646 9.84081 5.53119 9.84081 5.95738C9.84081 6.37539 9.92687 6.74011 10.099 7.05157C10.2711 7.36302 10.5006 7.60071 10.7875 7.76463C11.0825 7.92855 11.4145 8.01051 11.7833 8.01051Z" fill="#87878E"/>
<path d="M6.59016 9.23923L3.67643 5.04691L4.96732 4.24779L8.3974 9.23923H6.59016ZM0.897949 9.23923V0.633301H2.4716V9.23923H0.897949ZM1.99213 5.61244V4.2355H4.89356V5.61244H1.99213ZM5.11485 5.12068L3.65185 4.92397L6.59016 0.633301H8.28675L5.11485 5.12068Z" fill="#87878E"/>
</svg>
