<svg width="110" height="28" viewBox="0 0 110 28" fill="none" xmlns="http://www.w3.org/2000/svg">
<g clip-path="url(#clip0_227_328)">
<path fill-rule="evenodd" clip-rule="evenodd" d="M49.388 19.4051L50.7847 21.855H53.5535L44.5662 6.09167L35.5791 21.855H38.3478L39.7443 19.4051H49.388ZM47.9977 16.9669L44.5662 10.9477L41.1347 16.9669H47.9977Z" fill="white"/>
<path d="M71.6973 6.09167V8.53876H77.5902V21.8387H80.3955V8.53876H86.2884V6.09167H71.6973Z" fill="white"/>
<path fill-rule="evenodd" clip-rule="evenodd" d="M63.9087 8.54985H59.0137L57.3646 8.53876L55.6304 6.11379H64.2376C66.9492 6.11379 69.1677 7.9354 69.1677 10.6678C69.1677 12.6979 67.9704 14.2672 65.7634 14.9365L70.0833 21.8387H66.9256L62.7583 15.1671H59.0137V21.8387H56.2085V12.7858H59.0137H63.9087C65.1414 12.7858 66.4092 11.9846 66.4092 10.6678C66.4092 9.42786 65.2469 8.54985 63.9087 8.54985Z" fill="white"/>
<path d="M0 27.6371L16.0341 0L20.0426 6.90928L16.0341 13.8185H24.0511L32.0681 27.6371H0Z" fill="#166FF5"/>
<path fill-rule="evenodd" clip-rule="evenodd" d="M109.807 24.0579V3.76575H97.0975L86.4229 17.8992L91.2998 24.0579H109.807Z" fill="white"/>
<path fill-rule="evenodd" clip-rule="evenodd" d="M101.97 21.5775C104.692 21.5775 106.898 19.3665 106.898 16.6385C106.898 16.3964 106.881 16.1586 106.847 15.9258H106.843C106.499 13.5355 104.447 11.6992 101.966 11.6992H98.9553L102.723 7.00479L103.322 6.25916H100.202L95.905 11.6118C95.0014 12.738 93.6675 14.4756 93.4579 15.9258H93.4544C93.4213 16.1586 93.4038 16.3964 93.4038 16.6385C93.4038 19.3665 95.6099 21.5775 98.3311 21.5775H101.97ZM101.873 13.9792H101.966V13.9808C103.388 14.0304 104.527 15.2009 104.527 16.6385H104.53C104.53 18.0759 103.392 19.2465 101.97 19.296V19.2975H101.876H98.4245H98.3311V19.296C96.909 19.2465 95.7714 18.0759 95.7714 16.6385H95.7749C95.7749 15.2009 96.9125 14.0304 98.3346 13.9808V13.9792H98.428H101.873Z" fill="#1C1C20"/>
</g>
<defs>
<clipPath id="clip0_227_328">
<rect width="110" height="28" fill="white"/>
</clipPath>
</defs>
</svg>
