<svg width="126" height="32" viewBox="0 0 126 32" fill="none" xmlns="http://www.w3.org/2000/svg">
<path fill-rule="evenodd" clip-rule="evenodd" d="M56.5715 22.1773L58.1713 24.9772H61.3429L51.0483 6.96191L40.754 24.9772H43.9254L45.5251 22.1773H56.5715ZM54.9789 19.3907L51.0483 12.5117L47.1177 19.3907H54.9789Z" fill="white"/>
<path d="M82.1257 6.96191V9.75858H88.8758V24.9585H92.0891V9.75858H98.8392V6.96191H82.1257Z" fill="white"/>
<path fill-rule="evenodd" clip-rule="evenodd" d="M73.2048 9.77126H67.5978L65.7088 9.75858L63.7223 6.98719H73.5815C76.6875 6.98719 79.2287 9.06903 79.2287 12.1918C79.2287 14.5119 77.8572 16.3054 75.3292 17.0703L80.2775 24.9585H76.6605L71.887 17.3338H67.5978V24.9585H64.3845V14.6123H67.5978H73.2048C74.6168 14.6123 76.069 13.6967 76.069 12.1918C76.069 10.7747 74.7376 9.77126 73.2048 9.77126Z" fill="white"/>
<path d="M0 31.5853L18.3663 0L22.9579 7.89632L18.3663 15.7926H27.5494L36.7325 31.5853H0Z" fill="#166FF5"/>
<path fill-rule="evenodd" clip-rule="evenodd" d="M125.779 27.4947V4.30371H111.221L98.9937 20.4562L104.58 27.4947H125.779Z" fill="white"/>
<path fill-rule="evenodd" clip-rule="evenodd" d="M116.802 24.66C119.92 24.66 122.447 22.1332 122.447 19.0154C122.447 18.7387 122.427 18.467 122.388 18.2009H122.384C121.99 15.4691 119.639 13.3705 116.798 13.3705H113.349L117.665 8.00547L118.351 7.15332H114.777L109.855 13.2706C108.82 14.5577 107.292 16.5435 107.052 18.2009H107.048C107.01 18.467 106.99 18.7387 106.99 19.0154C106.99 22.1332 109.517 24.66 112.634 24.66H116.802ZM116.691 15.9762H116.798V15.9781C118.427 16.0347 119.731 17.3725 119.731 19.0154H119.735C119.735 20.6582 118.431 21.996 116.802 22.0526V22.0543H116.695H112.741H112.634V22.0526C111.005 21.996 109.702 20.6582 109.702 19.0154H109.706C109.706 17.3725 111.009 16.0347 112.638 15.9781V15.9762H112.745H116.691Z" fill="#1C1C20"/>
</svg>
