<svg width="95" height="22" viewBox="0 0 95 22" fill="none" xmlns="http://www.w3.org/2000/svg">
<g clip-path="url(#clip0_227_335)">
<mask id="mask0_227_335" style="mask-type:luminance" maskUnits="userSpaceOnUse" x="0" y="0" width="95" height="22">
<path d="M95 0H0V22H95V0Z" fill="white"/>
</mask>
<g mask="url(#mask0_227_335)">
<path d="M71.3501 2.2176H72.6695V5.93472L75.7834 2.2176H76.9868V7.85664H75.6673V4.13952L72.564 7.85664H71.3501V2.2176ZM74.084 1.55232C73.514 1.55232 73.0777 1.42208 72.7751 1.1616C72.4795 0.89408 72.3282 0.50688 72.3212 0H73.1973C73.2044 0.25344 73.2818 0.45408 73.4295 0.60192C73.5844 0.74976 73.799 0.82368 74.0734 0.82368C74.3408 0.82368 74.552 0.74976 74.7068 0.60192C74.8686 0.45408 74.9531 0.25344 74.9601 0H75.8573C75.8503 0.50688 75.6955 0.89408 75.3929 1.1616C75.0903 1.42208 74.654 1.55232 74.084 1.55232Z" fill="#87878E"/>
<path d="M65.4173 4.07618C66.1351 4.07618 66.684 4.2381 67.064 4.56194C67.444 4.88578 67.634 5.34338 67.634 5.93474C67.634 6.55426 67.4229 7.03298 67.0006 7.3709C66.5854 7.70882 65.9943 7.87426 65.2273 7.86722L62.6729 7.85666V2.21762H63.9923V4.06562L65.4173 4.07618ZM68.3623 2.21762H69.6817V7.85666H68.3623V2.21762ZM65.1112 6.8957C65.4982 6.90274 65.7938 6.82178 65.9979 6.65282C66.2019 6.48386 66.304 6.23746 66.304 5.91362C66.304 5.59682 66.2054 5.3645 66.0084 5.21666C65.8114 5.06882 65.5123 4.99138 65.1112 4.98434L63.9923 4.97378V6.88514L65.1112 6.8957Z" fill="#87878E"/>
<path d="M55.5317 2.21762H56.8512V4.50914H59.6906V2.21762H61.0101V7.85666H59.6906V5.6285H56.8512V7.85666H55.5317V2.21762Z" fill="#87878E"/>
<path d="M52.0691 7.93077C51.485 7.93077 50.9608 7.80757 50.4963 7.56117C50.0319 7.31477 49.6695 6.97333 49.4091 6.53685C49.1487 6.09333 49.0186 5.59349 49.0186 5.03733C49.0186 4.48117 49.1487 3.98485 49.4091 3.54837C49.6695 3.11189 50.0284 2.77045 50.4858 2.52405C50.9502 2.27765 51.478 2.15445 52.0691 2.15445C52.625 2.15445 53.1106 2.26709 53.5258 2.49237C53.948 2.71765 54.2647 3.04149 54.4758 3.46389L53.4624 4.05525C53.3006 3.79477 53.0965 3.60117 52.8502 3.47445C52.611 3.34069 52.3471 3.27381 52.0586 3.27381C51.566 3.27381 51.1578 3.43573 50.8341 3.75957C50.5104 4.07637 50.3486 4.50229 50.3486 5.03733C50.3486 5.57237 50.5069 6.00181 50.8236 6.32565C51.1473 6.64245 51.5589 6.80085 52.0586 6.80085C52.3471 6.80085 52.611 6.73749 52.8502 6.61077C53.0965 6.47701 53.3006 6.27989 53.4624 6.01941L54.4758 6.61077C54.2576 7.03317 53.9374 7.36053 53.5152 7.59285C53.1 7.81813 52.618 7.93077 52.0691 7.93077Z" fill="#87878E"/>
<path d="M45.6134 5.59682H44.5895V7.85666H43.27V2.21762H44.5895V4.49858H45.645L47.3128 2.21762H48.7272L46.6795 4.93154L48.8645 7.85666H47.3128L45.6134 5.59682Z" fill="#87878E"/>
<path d="M41.9328 5.06901C41.9328 5.16053 41.9257 5.29077 41.9117 5.45973H37.4889C37.5663 5.87509 37.7668 6.20597 38.0905 6.45237C38.4213 6.69173 38.8294 6.81141 39.315 6.81141C39.9342 6.81141 40.4444 6.60725 40.8455 6.19893L41.5528 7.01205C41.2994 7.31477 40.9793 7.54357 40.5922 7.69845C40.2052 7.85333 39.7688 7.93077 39.2832 7.93077C38.664 7.93077 38.1187 7.80757 37.6472 7.56117C37.1757 7.31477 36.8098 6.97333 36.5494 6.53685C36.2961 6.09333 36.1694 5.59349 36.1694 5.03733C36.1694 4.48821 36.2926 3.99541 36.5389 3.55893C36.7922 3.11541 37.1405 2.77045 37.5839 2.52405C38.0272 2.27765 38.5268 2.15445 39.0828 2.15445C39.6317 2.15445 40.1207 2.27765 40.55 2.52405C40.9863 2.76341 41.3241 3.10485 41.5633 3.54837C41.8096 3.98485 41.9328 4.49173 41.9328 5.06901ZM39.0828 3.21045C38.6605 3.21045 38.3016 3.33717 38.006 3.59061C37.7175 3.83701 37.5417 4.16789 37.4783 4.58325H40.6767C40.6204 4.17493 40.448 3.84405 40.1594 3.59061C39.8709 3.33717 39.512 3.21045 39.0828 3.21045Z" fill="#87878E"/>
<path d="M34.9835 2.21762V7.85666H33.664V3.33698H31.5529L31.5002 4.45634C31.465 5.20258 31.3946 5.82914 31.289 6.33602C31.1905 6.83586 31.0181 7.23362 30.7718 7.5293C30.5326 7.81794 30.2018 7.96226 29.7796 7.96226C29.5826 7.96226 29.3398 7.92354 29.0513 7.8461L29.1146 6.7373C29.2131 6.75842 29.2976 6.76898 29.3679 6.76898C29.6353 6.76898 29.8359 6.66338 29.9696 6.45218C30.1033 6.23394 30.1878 5.97698 30.2229 5.6813C30.2652 5.37858 30.3003 4.94914 30.3285 4.39298L30.4235 2.21762H34.9835Z" fill="#87878E"/>
<path d="M28.1999 2.21762V7.85666H26.891V3.33698H24.1149V7.85666H22.7954V2.21762H28.1999Z" fill="#87878E"/>
<path d="M19.9381 7.85666V4.11842L18.0382 7.2653H17.4682L15.5998 4.10786V7.85666H14.3965V2.21762H15.7793L17.7848 5.74466L19.8854 2.21762H21.1204L21.1309 7.85666H19.9381Z" fill="#87878E"/>
<path d="M10.1902 7.93077C9.62018 7.93077 9.10647 7.80757 8.64905 7.56117C8.19164 7.31477 7.83275 6.97333 7.57238 6.53685C7.31905 6.09333 7.19238 5.59349 7.19238 5.03733C7.19238 4.48117 7.31905 3.98485 7.57238 3.54837C7.83275 3.11189 8.19164 2.77045 8.64905 2.52405C9.10647 2.27765 9.62018 2.15445 10.1902 2.15445C10.7672 2.15445 11.2844 2.27765 11.7418 2.52405C12.1993 2.77045 12.5546 3.11189 12.808 3.54837C13.0683 3.98485 13.1985 4.48117 13.1985 5.03733C13.1985 5.59349 13.0683 6.09333 12.808 6.53685C12.5546 6.97333 12.1993 7.31477 11.7418 7.56117C11.2844 7.80757 10.7672 7.93077 10.1902 7.93077ZM10.1902 6.80085C10.6757 6.80085 11.0768 6.63893 11.3935 6.31509C11.7102 5.99125 11.8685 5.56533 11.8685 5.03733C11.8685 4.50933 11.7102 4.08341 11.3935 3.75957C11.0768 3.43573 10.6757 3.27381 10.1902 3.27381C9.70462 3.27381 9.30351 3.43573 8.98684 3.75957C8.6772 4.08341 8.52238 4.50933 8.52238 5.03733C8.52238 5.56533 8.6772 5.99125 8.98684 6.31509C9.30351 6.63893 9.70462 6.80085 10.1902 6.80085Z" fill="#87878E"/>
<path d="M3.35663 4.74172H1.98441V7.85692H0.633301V0.46492H1.98441V3.559H3.39886L5.52052 0.46492H6.97719L4.45441 4.04476L7.07219 7.85692H5.52052L3.35663 4.74172Z" fill="#87878E"/>
<path d="M95.1471 15.657H92.1388V20.1766H90.8193V14.5376H95.1471V15.657Z" fill="#87878E"/>
<path d="M83.7837 14.5376H85.1031V16.8291H87.9426V14.5376H89.2622V20.1766H87.9426V17.9485H85.1031V20.1766H83.7837V14.5376Z" fill="#87878E"/>
<path d="M76.583 14.5376H77.9025V18.2547L81.0163 14.5376H82.2197V20.1766H80.9002V16.4595L77.7969 20.1766H76.583V14.5376Z" fill="#87878E"/>
<path d="M75.8373 15.657H73.8635V20.1766H72.544V15.657H70.5596V14.5376H75.8373V15.657Z" fill="#87878E"/>
<path d="M70.3463 17.389C70.3463 17.4805 70.3393 17.6107 70.3252 17.7797H65.9025C65.9799 18.1951 66.1804 18.5259 66.5041 18.7723C66.8349 19.0117 67.243 19.1314 67.7286 19.1314C68.3478 19.1314 68.858 18.9272 69.2591 18.5189L69.9663 19.332C69.713 19.6347 69.3928 19.8635 69.0058 20.0184C68.6187 20.1733 68.1825 20.2507 67.6969 20.2507C67.0776 20.2507 66.5323 20.1275 66.0608 19.8811C65.5893 19.6347 65.2234 19.2933 64.963 18.8568C64.7097 18.4133 64.583 17.9135 64.583 17.3573C64.583 16.8082 64.7062 16.3154 64.9525 15.8789C65.2058 15.4354 65.5541 15.0904 65.9975 14.844C66.4408 14.5976 66.9404 14.4744 67.4963 14.4744C68.0452 14.4744 68.5343 14.5976 68.9636 14.844C69.3999 15.0834 69.7376 15.4248 69.9769 15.8683C70.2232 16.3048 70.3463 16.8117 70.3463 17.389ZM67.4963 15.5304C67.0741 15.5304 66.7152 15.6571 66.4197 15.9106C66.1312 16.157 65.9552 16.4879 65.8919 16.9032H69.0902C69.0339 16.4949 68.8615 16.164 68.573 15.9106C68.2845 15.6571 67.9256 15.5304 67.4963 15.5304Z" fill="#87878E"/>
<path d="M61.2838 17.9168H60.2599V20.1766H58.9404V14.5376H60.2599V16.8186H61.3154L62.9832 14.5376H64.3977L62.3499 17.2515L64.5349 20.1766H62.9832L61.2838 17.9168Z" fill="#87878E"/>
<path d="M54.9775 14.4744C55.5264 14.4744 56.0154 14.5941 56.4447 14.8335C56.881 15.0728 57.2223 15.4107 57.4686 15.8472C57.7149 16.2837 57.838 16.7871 57.838 17.3573C57.838 17.9275 57.7149 18.4344 57.4686 18.8779C57.2223 19.3144 56.881 19.6523 56.4447 19.8917C56.0154 20.1311 55.5264 20.2507 54.9775 20.2507C54.2175 20.2507 53.6158 19.9973 53.1725 19.4904V22.2255H51.853V14.5378H53.1091V15.277C53.3273 15.0095 53.5947 14.8088 53.9114 14.6751C54.2351 14.5413 54.5904 14.4744 54.9775 14.4744ZM54.8297 19.1208C55.3153 19.1208 55.7128 18.9589 56.0225 18.6351C56.3391 18.3112 56.4975 17.8853 56.4975 17.3573C56.4975 16.8293 56.3391 16.4034 56.0225 16.0795C55.7128 15.7557 55.3153 15.5938 54.8297 15.5938C54.513 15.5938 54.228 15.6677 53.9747 15.8155C53.7214 15.9563 53.5208 16.1605 53.373 16.428C53.2253 16.6955 53.1514 17.0053 53.1514 17.3573C53.1514 17.7093 53.2253 18.0191 53.373 18.2866C53.5208 18.5541 53.7214 18.7618 53.9747 18.9096C54.228 19.0504 54.513 19.1208 54.8297 19.1208Z" fill="#87878E"/>
<path d="M47.8665 14.4744C48.6968 14.4744 49.3302 14.6751 49.7665 15.0763C50.2098 15.4706 50.4315 16.069 50.4315 16.8715V20.1768H49.1859V19.4904C49.024 19.7368 48.7918 19.9269 48.4892 20.0607C48.1937 20.1874 47.8348 20.2507 47.4126 20.2507C46.9903 20.2507 46.6209 20.1803 46.3042 20.0395C45.9876 19.8917 45.7413 19.6911 45.5653 19.4376C45.3965 19.1771 45.312 18.885 45.312 18.5611C45.312 18.0543 45.4985 17.6495 45.8715 17.3467C46.2515 17.037 46.8461 16.8821 47.6553 16.8821H49.112V16.7976C49.112 16.4034 48.9924 16.1007 48.7531 15.8895C48.5209 15.6783 48.1726 15.5727 47.7081 15.5727C47.3915 15.5727 47.0783 15.6219 46.7687 15.7205C46.4661 15.8191 46.2092 15.9563 45.9981 16.1323L45.4809 15.1714C45.7765 14.9461 46.1318 14.7736 46.547 14.6539C46.9622 14.5343 47.402 14.4744 47.8665 14.4744ZM47.687 19.2898C48.0178 19.2898 48.3098 19.2159 48.5631 19.068C48.8235 18.9131 49.0065 18.6949 49.112 18.4133V17.7586H47.7503C46.9903 17.7586 46.6103 18.0085 46.6103 18.5083C46.6103 18.7477 46.7053 18.9378 46.8953 19.0786C47.0853 19.2194 47.3492 19.2898 47.687 19.2898Z" fill="#87878E"/>
<path d="M43.0143 20.1766V16.4384L41.1143 19.5853H40.5443L38.676 16.4278V20.1766H37.4727V14.5376H38.8554L40.861 18.0646L42.9615 14.5376H44.1965L44.2071 20.1766H43.0143Z" fill="#87878E"/>
<path d="M33.3164 16.6921H36.2192V17.7903H33.3164V16.6921Z" fill="#87878E"/>
<path d="M30.7612 12.3415H32.0807V20.177H30.7612V12.3415Z" fill="#87878E"/>
<path d="M26.7141 14.4744C27.5445 14.4744 28.1778 14.6751 28.6141 15.0763C29.0574 15.4706 29.2791 16.069 29.2791 16.8715V20.1768H28.0336V19.4904C27.8717 19.7368 27.6395 19.9269 27.3369 20.0607C27.0413 20.1874 26.6824 20.2507 26.2602 20.2507C25.838 20.2507 25.4686 20.1803 25.1519 20.0395C24.8352 19.8917 24.5889 19.6911 24.413 19.4376C24.2441 19.1771 24.1597 18.885 24.1597 18.5611C24.1597 18.0543 24.3461 17.6495 24.7191 17.3467C25.0991 17.037 25.6937 16.8821 26.503 16.8821H27.9597V16.7976C27.9597 16.4034 27.84 16.1007 27.6008 15.8895C27.3686 15.6783 27.0202 15.5727 26.5558 15.5727C26.2391 15.5727 25.926 15.6219 25.6163 15.7205C25.3137 15.8191 25.0569 15.9563 24.8458 16.1323L24.3286 15.1714C24.6241 14.9461 24.9795 14.7736 25.3947 14.6539C25.8099 14.5343 26.2497 14.4744 26.7141 14.4744ZM26.5347 19.2898C26.8654 19.2898 27.1574 19.2159 27.4108 19.068C27.6711 18.9131 27.8541 18.6949 27.9597 18.4133V17.7586H26.598C25.838 17.7586 25.458 18.0085 25.458 18.5083C25.458 18.7477 25.553 18.9378 25.743 19.0786C25.933 19.2194 26.1969 19.2898 26.5347 19.2898Z" fill="#87878E"/>
<path d="M23.6866 19.8704C23.5318 19.9971 23.3418 20.0922 23.1166 20.1555C22.8985 20.2189 22.6662 20.2506 22.4199 20.2506C21.8007 20.2506 21.3222 20.0886 20.9844 19.7648C20.6466 19.441 20.4777 18.9693 20.4777 18.3498V15.6358H19.5488V14.5798H20.4777V13.2915H21.7972V14.5798H23.3066V15.6358H21.7972V18.3181C21.7972 18.5926 21.864 18.8038 21.9977 18.9517C22.1314 19.0925 22.3249 19.1629 22.5783 19.1629C22.8738 19.1629 23.1201 19.0854 23.3172 18.9306L23.6866 19.8704Z" fill="#87878E"/>
<path d="M17.4583 14.5377H18.7777V20.1767H17.4583V14.5377ZM18.1233 13.6084C17.884 13.6084 17.6834 13.5345 17.5216 13.3866C17.3597 13.2318 17.2788 13.0417 17.2788 12.8164C17.2788 12.5911 17.3597 12.4046 17.5216 12.2567C17.6834 12.1018 17.884 12.0244 18.1233 12.0244C18.3625 12.0244 18.5631 12.0983 18.7249 12.2462C18.8868 12.387 18.9677 12.5665 18.9677 12.7847C18.9677 13.017 18.8868 13.2142 18.7249 13.3761C18.5701 13.531 18.3695 13.6084 18.1233 13.6084Z" fill="#87878E"/>
<path d="M15.9344 14.5378V19.3215C15.9344 21.3067 14.921 22.2994 12.8944 22.2994C12.3525 22.2994 11.8388 22.229 11.3533 22.0882C10.8677 21.9544 10.4666 21.7573 10.1499 21.4968L10.741 20.5042C10.9873 20.7083 11.297 20.8703 11.6699 20.9899C12.0499 21.1167 12.4335 21.18 12.8205 21.18C13.4397 21.18 13.8936 21.0392 14.1822 20.7576C14.4707 20.476 14.6149 20.0466 14.6149 19.4693V19.1736C14.3897 19.42 14.1153 19.6066 13.7916 19.7333C13.4679 19.86 13.1125 19.9234 12.7255 19.9234C12.1907 19.9234 11.7051 19.8107 11.2688 19.5855C10.8396 19.3531 10.4983 19.0293 10.2449 18.6139C9.99864 18.1986 9.87549 17.7234 9.87549 17.1883C9.87549 16.6533 9.99864 16.1816 10.2449 15.7733C10.4983 15.3579 10.8396 15.0376 11.2688 14.8123C11.7051 14.5871 12.1907 14.4744 12.7255 14.4744C13.1336 14.4744 13.5031 14.5413 13.8338 14.6751C14.1716 14.8088 14.4531 15.013 14.6783 15.2875V14.5378H15.9344ZM12.926 18.804C13.4257 18.804 13.8338 18.6562 14.1505 18.3605C14.4742 18.0578 14.636 17.6671 14.636 17.1883C14.636 16.7167 14.4742 16.333 14.1505 16.0373C13.8338 15.7416 13.4257 15.5938 12.926 15.5938C12.4194 15.5938 12.0042 15.7416 11.6805 16.0373C11.3638 16.333 11.2055 16.7167 11.2055 17.1883C11.2055 17.6671 11.3638 18.0578 11.6805 18.3605C12.0042 18.6562 12.4194 18.804 12.926 18.804Z" fill="#87878E"/>
<path d="M7.49976 14.5377H8.81923V20.1767H7.49976V14.5377ZM8.16476 13.6084C7.9255 13.6084 7.72494 13.5345 7.56309 13.3866C7.40124 13.2318 7.32031 13.0417 7.32031 12.8164C7.32031 12.5911 7.40124 12.4046 7.56309 12.2567C7.72494 12.1018 7.9255 12.0244 8.16476 12.0244C8.40402 12.0244 8.60457 12.0983 8.76642 12.2462C8.9283 12.387 9.00923 12.5665 9.00923 12.7847C9.00923 13.017 8.9283 13.2142 8.76642 13.3761C8.61161 13.531 8.41105 13.6084 8.16476 13.6084Z" fill="#87878E"/>
<path d="M5.985 12.3415V20.177H4.71833V19.4484C4.50019 19.7159 4.22926 19.9165 3.90556 20.0503C3.58889 20.184 3.23704 20.2509 2.85 20.2509C2.30815 20.2509 1.81907 20.1312 1.38278 19.8919C0.953519 19.6525 0.615741 19.3146 0.369444 18.8781C0.123148 18.4346 0 17.9277 0 17.3575C0 16.7872 0.123148 16.2839 0.369444 15.8474C0.615741 15.4109 0.953519 15.073 1.38278 14.8336C1.81907 14.5943 2.30815 14.4746 2.85 14.4746C3.22296 14.4746 3.56426 14.538 3.87389 14.6647C4.18352 14.7914 4.44741 14.9815 4.66556 15.2349V12.3415H5.985ZM3.00833 19.121C3.325 19.121 3.61 19.0506 3.86333 18.9098C4.11667 18.762 4.31722 18.5543 4.465 18.2868C4.61278 18.0192 4.68667 17.7095 4.68667 17.3575C4.68667 17.0055 4.61278 16.6957 4.465 16.4282C4.31722 16.1607 4.11667 15.9565 3.86333 15.8157C3.61 15.6679 3.325 15.594 3.00833 15.594C2.69167 15.594 2.40667 15.6679 2.15333 15.8157C1.9 15.9565 1.69944 16.1607 1.55167 16.4282C1.40389 16.6957 1.33 17.0055 1.33 17.3575C1.33 17.7095 1.40389 18.0192 1.55167 18.2868C1.69944 18.5543 1.9 18.762 2.15333 18.9098C2.40667 19.0506 2.69167 19.121 3.00833 19.121Z" fill="#87878E"/>
</g>
</g>
<defs>
<clipPath id="clip0_227_335">
<rect width="95" height="22" fill="white"/>
</clipPath>
</defs>
</svg>
