<svg width="201" height="48" viewBox="0 0 201 48" fill="none" xmlns="http://www.w3.org/2000/svg">
<g clip-path="url(#clip0_303_1717)">
<path d="M96.7338 38.8259H91.4752V23.8558L87.9042 32.3372H85.0671L81.4961 23.8558V38.8259H76.2131V12.7983H81.0314L86.4857 25.6784L91.9399 12.7983H96.7093V38.8259H96.7338Z" fill="white"/>
<path d="M117.206 27.33H106.371C106.371 30.6108 106.64 32.6765 107.178 33.5028C107.643 34.1832 108.328 34.5478 109.208 34.5478C110.064 34.5478 110.725 34.2075 111.189 33.5514C111.63 33.0167 111.825 32.2391 111.825 31.1698H117.084C116.986 33.6972 116.228 35.69 114.858 37.1481C113.562 38.5333 111.678 39.2138 109.184 39.2138C106.787 39.2138 104.904 38.509 103.509 37.0995C102.507 36.0788 101.871 34.645 101.553 32.798C101.235 30.9511 101.088 28.6181 101.088 25.7747C101.088 22.9557 101.235 20.5984 101.553 18.7514C101.871 16.9045 102.531 15.4706 103.509 14.45C104.879 13.0647 106.738 12.3843 109.135 12.3843C111.483 12.3843 113.366 13.0647 114.76 14.45C115.714 15.3977 116.375 16.9045 116.692 18.9458C117.059 21.0115 117.206 23.8062 117.206 27.33ZM111.948 23.466C111.948 20.5984 111.703 18.8 111.214 18.0953C110.725 17.4148 110.04 17.0503 109.184 17.0503C108.328 17.0503 107.643 17.3905 107.154 18.0953C106.665 18.8243 106.42 20.6227 106.42 23.466H111.948Z" fill="white"/>
<path d="M137.066 18.4361C137.286 20.1129 137.384 22.5674 137.384 25.7996C137.384 26.2857 137.335 28.5458 136.87 30.5142C136.601 31.6321 136.112 32.507 135.55 33.2361C134.449 34.597 132.908 35.2531 130.927 35.2531C129.924 35.2531 129.044 35.0344 128.285 34.5727C127.723 34.2081 127.209 33.7464 126.745 33.1874V38.8012H121.486V12.798H126.549V14.7179C126.818 14.1832 127.405 13.6486 128.285 13.0896C129.044 12.6279 129.924 12.4092 130.927 12.4092C132.908 12.4092 134.449 13.0896 135.55 14.4263C136.357 15.4226 136.846 16.7592 137.066 18.4361ZM132.125 25.7996C132.125 21.4009 131.832 18.8249 131.269 18.0959C130.78 17.4154 130.12 17.0509 129.337 17.0509C128.603 17.0509 128.016 17.2939 127.552 17.7799C127.014 18.3632 126.745 19.1895 126.745 20.2101V27.4522C126.745 28.5458 127.014 29.3477 127.552 29.8824C128.016 30.3441 128.603 30.5628 129.337 30.5628C130.169 30.5628 130.805 30.2226 131.269 29.5664C131.832 28.8374 132.125 28.2298 132.125 25.7996Z" fill="white"/>
<path d="M196.989 18.4361C197.209 20.1129 197.307 22.5674 197.307 25.7996C197.307 26.2857 197.258 28.5458 196.793 30.5142C196.524 31.6321 196.035 32.507 195.472 33.2361C194.371 34.597 192.831 35.2531 190.849 35.2531C189.847 35.2531 188.966 35.0344 188.208 34.5727C187.645 34.2081 187.132 33.7464 186.667 33.1874V38.8012H181.409V12.798H186.471V14.7179C186.74 14.1832 187.327 13.6486 188.208 13.0896C188.966 12.6279 189.847 12.4092 190.849 12.4092C192.831 12.4092 194.371 13.0896 195.472 14.4263C196.279 15.4226 196.768 16.7592 196.989 18.4361ZM192.048 25.7996C192.048 21.4009 191.754 18.8249 191.192 18.0959C190.703 17.4154 190.042 17.0509 189.26 17.0509C188.526 17.0509 187.939 17.2939 187.474 17.7799C186.936 18.3632 186.667 19.1895 186.667 20.2101V27.4522C186.667 28.5458 186.936 29.3477 187.474 29.8824C187.939 30.3441 188.526 30.5628 189.26 30.5628C190.091 30.5628 190.727 30.2226 191.192 29.5664C191.779 28.8374 192.048 28.2298 192.048 25.7996Z" fill="white"/>
<path d="M177.106 25.7996C177.106 31.1947 176.494 34.7428 175.271 36.4682C173.951 38.3152 171.872 39.2387 169.059 39.2387C166.246 39.2387 164.167 38.3152 162.847 36.4682C161.624 34.7671 161.012 31.1947 161.012 25.7996C161.012 20.4046 161.624 16.8565 162.847 15.131C164.167 13.3327 166.246 12.4092 169.059 12.4092C171.872 12.4092 173.951 13.3084 175.271 15.131C176.494 16.8322 177.106 20.3803 177.106 25.7996ZM171.823 25.7996C171.823 21.5468 171.578 18.995 171.089 18.1445C170.624 17.4154 169.939 17.0509 169.059 17.0509C168.178 17.0509 167.494 17.4154 167.029 18.1445C166.54 18.995 166.295 21.5468 166.295 25.7996C166.295 30.0768 166.54 32.6528 167.029 33.5034C167.469 34.1838 168.13 34.5484 169.059 34.5484C169.988 34.5484 170.673 34.2081 171.089 33.5034C171.578 32.6285 171.823 30.0768 171.823 25.7996Z" fill="white"/>
<path d="M195.596 8.76395H194.715V6.21224H193.81V5.43457H196.5V6.21224H195.596V8.76395Z" fill="white"/>
<path d="M198.285 5.43457L198.921 7.52455H198.945L199.557 5.43457H201V8.76395H200.119L200.217 6.21224H200.168L199.337 8.76395H198.554L197.723 6.21224H197.674L197.771 8.76395H196.891V5.43457H198.285Z" fill="white"/>
<path d="M153.844 38.8259H159.69L152.499 25.0952L158.956 12.7983H153.282L147.974 23.4669H147.02V12.7983H141.762V38.8259H147.02V27.331H148.121L153.844 38.8259Z" fill="white"/>
<path d="M0 37.8955H16.0448L30.622 4.52881H20.5451C16.9253 4.52881 13.6723 6.66739 12.2292 9.94817L0 37.8955Z" fill="#00B2E3"/>
<path d="M38.4737 37.8955H54.494L69.0712 4.52881H58.9944C55.3745 4.52881 52.1215 6.66739 50.6785 9.94817L38.4737 37.8955Z" fill="#DF4832"/>
<path d="M16.046 45.2105H32.0663L46.6435 11.8438H36.5666C32.9468 11.8438 29.6938 13.9823 28.2507 17.2631L16.046 45.2105Z" fill="#FFB548"/>
</g>
<defs>
<clipPath id="clip0_303_1717">
<rect width="201" height="48" fill="white"/>
</clipPath>
</defs>
</svg>
