<svg width="231" height="36" viewBox="0 0 231 36" fill="none" xmlns="http://www.w3.org/2000/svg">
<path d="M227.338 29.7004V18.2044L221.506 27.8819H219.756L214.021 18.1719V29.7004H210.327V12.3589H214.572L220.728 23.2055L227.176 12.3589H230.968L231 29.7004H227.338Z" fill="#1C1C20"/>
<path d="M197.092 29.9271C195.342 29.9271 193.765 29.5483 192.361 28.7905C190.957 28.0328 189.855 26.9827 189.056 25.6404C188.278 24.2765 187.89 22.7394 187.89 21.029C187.89 19.3187 188.278 17.7924 189.056 16.4501C189.855 15.1078 190.957 14.0578 192.361 13.3C193.765 12.5423 195.342 12.1634 197.092 12.1634C198.863 12.1634 200.451 12.5423 201.855 13.3C203.259 14.0578 204.35 15.1078 205.128 16.4501C205.927 17.7924 206.327 19.3187 206.327 21.029C206.327 22.7394 205.927 24.2765 205.128 25.6404C204.35 26.9827 203.259 28.0328 201.855 28.7905C200.451 29.5483 198.863 29.9271 197.092 29.9271ZM197.092 26.4523C198.583 26.4523 199.814 25.9544 200.786 24.9585C201.758 23.9626 202.244 22.6528 202.244 21.029C202.244 19.4053 201.758 18.0955 200.786 17.0996C199.814 16.1037 198.583 15.6057 197.092 15.6057C195.602 15.6057 194.37 16.1037 193.398 17.0996C192.448 18.0955 191.972 19.4053 191.972 21.029C191.972 22.6528 192.448 23.9626 193.398 24.9585C194.37 25.9544 195.602 26.4523 197.092 26.4523Z" fill="#1C1C20"/>
<path d="M176.565 12.1635C178.25 12.1635 179.751 12.5315 181.069 13.2676C182.408 14.0037 183.456 15.0429 184.212 16.3852C184.968 17.7275 185.346 19.2754 185.346 21.0291C185.346 22.7827 184.968 24.3415 184.212 25.7055C183.456 27.0478 182.408 28.0869 181.069 28.823C179.751 29.5591 178.25 29.9272 176.565 29.9272C174.232 29.9272 172.385 29.1478 171.024 27.589V36H166.974V12.3583H170.83V14.6315C171.499 13.8088 172.32 13.1918 173.292 12.7805C174.286 12.3691 175.377 12.1635 176.565 12.1635ZM176.112 26.4524C177.602 26.4524 178.823 25.9544 179.773 24.9585C180.745 23.9626 181.231 22.6528 181.231 21.0291C181.231 19.4053 180.745 18.0955 179.773 17.0996C178.823 16.1037 177.602 15.6058 176.112 15.6058C175.139 15.6058 174.265 15.8331 173.487 16.2878C172.709 16.7208 172.094 17.3486 171.64 18.1713C171.186 18.994 170.959 19.9466 170.959 21.0291C170.959 22.1116 171.186 23.0642 171.64 23.8869C172.094 24.7096 172.709 25.3482 173.487 25.8029C174.265 26.2359 175.139 26.4524 176.112 26.4524Z" fill="#1C1C20"/>
<path d="M161.033 6.96762V29.7H156.885V10.5399H145.123V29.7H140.975V6.96762H161.033Z" fill="#1C1C20"/>
<path d="M129.536 29.9271C127.743 29.9271 126.134 29.5483 124.708 28.7905C123.282 28.0328 122.17 26.9827 121.371 25.6404C120.571 24.2765 120.172 22.7394 120.172 21.029C120.172 19.3187 120.571 17.7924 121.371 16.4501C122.17 15.1078 123.272 14.0578 124.676 13.3C126.101 12.5423 127.722 12.1634 129.536 12.1634C131.243 12.1634 132.733 12.5098 134.008 13.2026C135.304 13.8954 136.276 14.8913 136.924 16.1903L133.813 18.0089C133.316 17.2078 132.69 16.6124 131.934 16.2227C131.199 15.8114 130.389 15.6057 129.504 15.6057C127.992 15.6057 126.739 16.1037 125.745 17.0996C124.751 18.0738 124.254 19.3836 124.254 21.029C124.254 22.6744 124.74 23.9951 125.713 24.991C126.706 25.9652 127.97 26.4523 129.504 26.4523C130.389 26.4523 131.199 26.2575 131.934 25.8678C132.69 25.4564 133.316 24.8502 133.813 24.0492L136.924 25.8678C136.254 27.1668 135.271 28.1735 133.975 28.8879C132.701 29.5807 131.221 29.9271 129.536 29.9271Z" fill="#1C1C20"/>
<path d="M117.228 21.1264C117.228 21.4079 117.206 21.8084 117.163 22.328H103.586C103.824 23.6054 104.44 24.6229 105.433 25.3806C106.449 26.1167 107.701 26.4848 109.192 26.4848C111.093 26.4848 112.659 25.8569 113.89 24.6013L116.061 27.1018C115.284 28.0328 114.301 28.7364 113.113 29.2127C111.925 29.689 110.585 29.9271 109.095 29.9271C107.194 29.9271 105.52 29.5483 104.072 28.7905C102.625 28.0328 101.502 26.9827 100.702 25.6404C99.9247 24.2765 99.5359 22.7394 99.5359 21.029C99.5359 19.3403 99.9139 17.8248 100.67 16.4825C101.448 15.1186 102.517 14.0578 103.878 13.3C105.239 12.5423 106.773 12.1634 108.479 12.1634C110.164 12.1634 111.665 12.5423 112.983 13.3C114.322 14.0361 115.359 15.0861 116.094 16.4501C116.85 17.7924 117.228 19.3512 117.228 21.1264ZM108.479 15.4109C107.183 15.4109 106.081 15.8006 105.174 16.58C104.288 17.3377 103.748 18.3553 103.554 19.6326H113.372C113.199 18.3769 112.67 17.3594 111.784 16.58C110.899 15.8006 109.797 15.4109 108.479 15.4109Z" fill="#1C1C20"/>
<path d="M93.505 20.6724C95.6436 21.3219 96.7129 22.7075 96.7129 24.8292C96.7129 26.388 96.1297 27.5896 94.9632 28.4339C93.7966 29.2783 92.0685 29.7004 89.7787 29.7004H80.9651V12.3589H89.4223C91.5392 12.3589 93.1918 12.7486 94.3799 13.528C95.568 14.3074 96.1621 15.4115 96.1621 16.8404C96.1621 17.7281 95.9244 18.4966 95.4492 19.1461C94.9956 19.7956 94.3475 20.3044 93.505 20.6724ZM84.821 19.6008H89.0658C91.1612 19.6008 92.2089 18.8755 92.2089 17.425C92.2089 16.0177 91.1612 15.3141 89.0658 15.3141H84.821V19.6008ZM89.4547 26.7452C91.6797 26.7452 92.7922 26.02 92.7922 24.5694C92.7922 23.8117 92.5329 23.2488 92.0145 22.8807C91.496 22.491 90.686 22.2962 89.5843 22.2962H84.821V26.7452H89.4547Z" fill="#1C1C20"/>
<path d="M68.0803 12.1634C70.6293 12.1634 72.5735 12.7804 73.9128 14.0145C75.2737 15.2269 75.9542 17.0671 75.9542 19.5352V29.6998H72.1306V27.5889C71.6338 28.3467 70.9209 28.9312 69.9921 29.3426C69.0848 29.7323 67.9831 29.9271 66.687 29.9271C65.3908 29.9271 64.2567 29.7106 63.2846 29.2776C62.3126 28.823 61.5565 28.206 61.0164 27.4266C60.498 26.6255 60.2388 25.727 60.2388 24.7311C60.2388 23.1724 60.8112 21.9275 61.9561 20.9965C63.1226 20.0439 64.948 19.5677 67.4322 19.5677H71.9038V19.3079C71.9038 18.0955 71.5366 17.1645 70.8021 16.515C70.0893 15.8655 69.02 15.5408 67.5942 15.5408C66.6221 15.5408 65.6609 15.6923 64.7104 15.9954C63.7815 16.2985 62.993 16.7207 62.345 17.2619L60.7572 14.3067C61.6645 13.6139 62.7554 13.0835 64.0299 12.7155C65.3044 12.3474 66.6546 12.1634 68.0803 12.1634ZM67.5294 26.9719C68.5447 26.9719 69.4412 26.7446 70.2189 26.2899C71.0181 25.8136 71.5798 25.1425 71.9038 24.2765V22.2631H67.7239C65.3908 22.2631 64.2243 23.0316 64.2243 24.5688C64.2243 25.3049 64.516 25.8894 65.0992 26.3224C65.6825 26.7554 66.4925 26.9719 67.5294 26.9719Z" fill="#1C1C20"/>
<path d="M55.723 6.96762V29.7H51.5106V19.9576H39.7807V29.7H35.5684V6.96762H39.7807V16.3528H51.5106V6.96762H55.723Z" fill="#1C1C20"/>
<path d="M22.185 18.4302L22.185 22.5819L25.8182 22.5819L25.8182 9.15406L7.42883 29.5371L0 29.5371L29.9589 -1.08463e-05L29.9589 14.0008L29.9589 29.5371L12.422 29.5371L22.185 18.4302Z" fill="#1E674E"/>
</svg>
