<svg width="24" height="24" viewBox="0 0 24 24" fill="none" xmlns="http://www.w3.org/2000/svg">
<path fill-rule="evenodd" clip-rule="evenodd" d="M21.6938 4.54686C21.9873 3.16351 20.5816 2.01392 19.2189 2.52286L2.51433 8.76137C0.992487 9.32972 0.924678 11.3867 2.40599 12.0475L6.04378 13.6705L7.77432 19.5251C7.86421 19.8292 8.11387 20.0647 8.4306 20.144C8.74734 20.2233 9.08386 20.1347 9.31523 19.911L11.9809 17.3343L15.7151 20.0415C16.7991 20.8272 18.3603 20.2549 18.6325 18.9719L21.6938 4.54686ZM3.17995 10.4266L19.8845 4.18813L16.8233 18.6133L12.4484 15.4416C12.0808 15.1751 11.5663 15.2104 11.2414 15.5245L10.0996 16.6282L10.4427 14.8045L17.1646 8.30705C17.4918 7.99084 17.5263 7.48944 17.2455 7.13406C16.9647 6.77867 16.4552 6.67899 16.0535 6.90086L6.77029 12.0283L3.17995 10.4266ZM7.90218 13.4593L8.46215 15.3538L8.67714 14.2108C8.71074 14.0322 8.7999 13.8677 8.93272 13.7393L10.9827 11.7579L7.90218 13.4593Z" fill="#E8F2FB"/>
</svg>
