<svg width="24" height="24" viewBox="0 0 24 24" fill="none" xmlns="http://www.w3.org/2000/svg">
<path d="M12.039 2.39999C6.77104 2.39999 2.47758 6.67199 2.47758 11.9136C2.47758 13.5936 2.9214 15.2256 3.75114 16.6656L2.40039 21.6L7.46572 20.2752C8.86471 21.0336 10.4374 21.4368 12.039 21.4368C17.3069 21.4368 21.6004 17.1648 21.6004 11.9232C21.6004 9.37919 20.6066 6.98879 18.8024 5.19359C16.9982 3.38879 14.5958 2.39999 12.039 2.39999ZM12.0486 4.00319C14.1712 4.00319 16.1588 4.82879 17.6639 6.32639C19.1594 7.82399 19.9891 9.81119 19.9891 11.9232C19.9891 16.2816 16.4193 19.824 12.039 19.824C10.611 19.824 9.21205 19.4496 7.99637 18.72L7.70692 18.5568L4.69667 19.344L5.49748 16.4256L5.30451 16.1184C4.51336 14.88 4.08883 13.4112 4.08883 11.9136C4.09848 7.55519 7.65868 4.00319 12.0486 4.00319ZM8.65245 7.51679C8.49808 7.51679 8.23758 7.57439 8.01567 7.81439C7.80341 8.05439 7.17627 8.63999 7.17627 9.80159C7.17627 10.9728 8.03496 12.096 8.14109 12.2592C8.27617 12.4224 9.83918 14.8224 12.2416 15.84C12.8108 16.0992 13.2547 16.2432 13.602 16.3488C14.1712 16.5312 14.6922 16.5024 15.1071 16.4448C15.5702 16.3776 16.5158 15.8688 16.7184 15.312C16.921 14.7552 16.921 14.2848 16.8631 14.1792C16.7956 14.0832 16.6412 14.0256 16.4 13.92C16.1588 13.7856 14.9817 13.2096 14.7694 13.1328C14.5475 13.056 14.4125 13.0176 14.2291 13.248C14.0748 13.488 13.6116 14.0256 13.4766 14.1792C13.3318 14.3424 13.1968 14.3616 12.9652 14.2464C12.7144 14.1216 11.9425 13.872 11.0356 13.0656C10.3216 12.432 9.84883 11.6544 9.70411 11.4144C9.58833 11.184 9.69446 11.04 9.81024 10.9344C9.91637 10.8288 10.0707 10.656 10.1672 10.512C10.2927 10.3776 10.3312 10.272 10.4084 10.1184C10.4856 9.95519 10.447 9.82079 10.3891 9.70559C10.3312 9.59999 9.84883 8.40959 9.64622 7.93919C9.45325 7.47839 9.26029 7.53599 9.10592 7.52639C8.97084 7.52639 8.81647 7.51679 8.65245 7.51679Z" fill="#E8F2FB"/>
</svg>
