<svg width="24" height="24" viewBox="0 0 24 24" fill="none" xmlns="http://www.w3.org/2000/svg">
<path fill-rule="evenodd" clip-rule="evenodd" d="M11.3374 2.25105C11.7157 1.91632 12.2843 1.91632 12.6626 2.25105C14.8038 4.14541 17.5984 5.13173 20.4543 5.00105C20.9145 4.97999 21.3295 5.27601 21.4594 5.71797C21.9508 7.38957 22.1012 9.14289 21.9016 10.8737C21.7019 12.6046 21.1564 14.2777 20.2974 15.7935C19.4385 17.3094 18.2835 18.6371 16.9012 19.6978C15.519 20.7585 13.9376 21.5305 12.2511 21.968C12.0864 22.0107 11.9136 22.0107 11.7489 21.968C10.0624 21.5305 8.48105 20.7585 7.09879 19.6978C5.71652 18.6371 4.56158 17.3094 3.70259 15.7935C2.8436 14.2777 2.29809 12.6046 2.09848 10.8737C1.89886 9.14289 2.04922 7.38957 2.54061 5.71797C2.67053 5.27601 3.08555 4.97999 3.54573 5.00105C6.40163 5.13173 9.19622 4.14541 11.3374 2.25105ZM4.27205 7.01064C4.00887 8.20149 3.94518 9.42959 4.08531 10.6446C4.25421 12.1092 4.7158 13.5249 5.44264 14.8075C6.16947 16.0902 7.14673 17.2136 8.31634 18.1111C9.4171 18.9558 10.6671 19.5841 12 19.9637C13.3329 19.5841 14.5829 18.9558 15.6837 18.1111C16.8533 17.2136 17.8306 16.0902 18.5574 14.8075C19.2842 13.5249 19.7458 12.1092 19.9147 10.6446C20.0548 9.42959 19.9912 8.20149 19.728 7.01064C16.9269 6.96258 14.2157 6.01037 12 4.29724C9.78436 6.01037 7.07309 6.96258 4.27205 7.01064ZM15.7071 9.29289C16.0976 9.68342 16.0976 10.3166 15.7071 10.7071L11.7071 14.7071C11.3166 15.0976 10.6834 15.0976 10.2929 14.7071L8.29289 12.7071C7.90237 12.3166 7.90237 11.6834 8.29289 11.2929C8.68342 10.9024 9.31658 10.9024 9.70711 11.2929L11 12.5858L14.2929 9.29289C14.6834 8.90237 15.3166 8.90237 15.7071 9.29289Z" fill="white"/>
</svg>
