<svg width="30" height="30" viewBox="0 0 30 30" fill="none" xmlns="http://www.w3.org/2000/svg">
<path d="M25.7259 12.9745C26.2139 13.4837 26.1816 14.278 25.6536 14.7486C25.1258 15.219 24.3029 15.1878 23.815 14.6789L15.1073 5.59348L5.64995 14.7147C5.14163 15.2047 4.31759 15.2047 3.80927 14.7147C3.30088 14.2245 3.30088 13.429 3.80927 12.9387L15.1806 1.97266L25.7259 12.9745Z" fill="white"/>
<path d="M14.1539 25.7455V4.41888C14.1539 3.72603 14.6875 3.16443 15.3457 3.16443C16.0039 3.16443 16.5375 3.72603 16.5375 4.41888V25.7455C16.5375 26.4384 16.0039 27 15.3457 27C14.6875 27 14.1539 26.4384 14.1539 25.7455Z" fill="white"/>
</svg>
