<svg width="16" height="16" viewBox="0 0 16 16" fill="none" xmlns="http://www.w3.org/2000/svg">
<g clip-path="url(#clip0_2001_323)">
<path d="M14.6429 1.12366C12.5321 2.04917 3.48167 6.01853 0.980961 7.10043C-0.69617 7.79341 0.285552 8.44303 0.285552 8.44303C0.285552 8.44303 1.71712 8.96271 2.94424 9.35254C4.17135 9.7423 4.82583 9.30921 4.82583 9.30921L10.5932 5.19467C12.6383 3.72223 12.1475 4.93484 11.6568 5.45448C10.5932 6.58061 8.83441 8.35623 7.3619 9.78549C6.70742 10.3918 7.03466 10.9116 7.32098 11.1714C8.38457 12.1243 11.2887 14.0731 11.4523 14.2031C12.3165 14.8508 14.0162 15.7833 14.2747 13.8134L15.2974 7.01377C15.6246 4.71836 15.9519 2.5961 15.9927 1.98979C16.1154 0.517353 14.6429 1.12366 14.6429 1.12366Z" fill="#26A4E3"/>
</g>
<defs>
<clipPath id="clip0_2001_323">
<rect width="16" height="14" fill="white" transform="translate(0 1)"/>
</clipPath>
</defs>
</svg>
