<svg width="40" height="40" viewBox="0 0 40 40" fill="none" xmlns="http://www.w3.org/2000/svg">
<g clip-path="url(#clip0_32_222)">
<path d="M39.6344 15.4453C38.8376 13.4453 36.9313 12.1562 34.7751 12.1562H28.5798L24.7673 3.17969C23.9391 1.21875 22.0876 0 19.9469 0C17.8063 0 15.9626 1.21875 15.1266 3.17969L11.3298 12.1562H5.236C3.08756 12.1562 1.18131 13.4375 0.384439 15.4297C-0.412436 17.4062 0.0719393 19.6328 1.611 21.1016L7.16569 26.4297L5.62663 33.7266C5.18913 35.8125 6.0485 37.9219 7.82194 39.1094C8.71256 39.7031 9.72819 40 10.7438 40C11.7751 40 12.8063 39.6953 13.7048 39.0781L19.9626 34.8047L26.2204 39.0781C28.0016 40.2969 30.3063 40.3047 32.0954 39.1094C33.8688 37.9219 34.736 35.8047 34.2907 33.7266C34.0641 32.6719 33.0329 32 31.9782 32.2188C30.9235 32.4453 30.2438 33.4766 30.4704 34.5312C30.6344 35.2969 30.1423 35.7188 29.9235 35.8594C29.7438 35.9766 29.1188 36.3281 28.4235 35.8516L21.0641 30.8203C20.4001 30.3672 19.5251 30.3672 18.861 30.8203L11.5016 35.8516C10.8063 36.3281 10.1735 35.9766 10.0016 35.8594C9.78288 35.7109 9.29069 35.2891 9.45475 34.5312L11.2204 26.1719C11.361 25.5078 11.1501 24.8281 10.6579 24.3594L4.30631 18.2812C3.74381 17.7422 3.90788 17.125 4.00163 16.8828C4.10319 16.6328 4.41569 16.0625 5.22819 16.0625H12.6188C13.4001 16.0625 14.111 15.5937 14.4157 14.875L18.7282 4.71094C19.0329 3.98438 19.6813 3.90625 19.9469 3.90625C20.2126 3.90625 20.861 3.98438 21.1657 4.70312L25.4782 14.8672C25.7829 15.5859 26.4938 16.0547 27.2751 16.0547H34.7673C35.5798 16.0547 35.9001 16.6328 36.0016 16.8828C36.0954 17.125 36.2594 17.7422 35.6891 18.2812L29.2673 24.3438C28.486 25.0859 28.4469 26.3203 29.1891 27.1016C29.9313 27.8828 31.1657 27.9219 31.9469 27.1797L38.3688 21.1172C39.9235 19.6562 40.4235 17.4297 39.6344 15.4453Z" fill="#1E674E"/>
</g>
<defs>
<clipPath id="clip0_32_222">
<rect width="40" height="40" fill="white"/>
</clipPath>
</defs>
</svg>
