<svg width="40" height="40" viewBox="0 0 40 40" fill="none" xmlns="http://www.w3.org/2000/svg">
<g clip-path="url(#clip0_32_236)">
<path d="M36.853 25.0301C37.6916 17.6236 33.5881 10.4925 26.7762 7.51706C26.6249 3.89795 23.644 1 20 1C16.356 1 13.3751 3.89795 13.2238 7.51706C6.41146 10.4927 2.30844 17.6241 3.147 25.0301C0.0969012 26.9706 -0.9152 31.0105 0.907193 34.1774C2.16237 36.3584 4.44706 37.5789 6.79337 37.5789C7.94272 37.5787 9.00321 37.296 9.92815 36.8068C15.896 41.2343 24.0936 41.2421 30.0709 36.8077C30.9954 37.2964 32.0561 37.5789 33.2067 37.5789C35.5528 37.5786 37.8379 36.358 39.0929 34.1774C40.9152 31.0105 39.9031 26.9706 36.853 25.0301ZM12.4817 34.4493C13.7734 32.4382 14.0333 29.7641 12.6565 27.3718C11.3421 25.0878 8.91197 23.8596 6.45792 23.9762C6.11264 18.5264 9.081 13.3512 13.9715 10.9199C15.1001 13.1099 17.3778 14.6112 20 14.6112C22.6222 14.6112 24.8998 13.1098 26.0285 10.9199C30.9207 13.3519 33.887 18.5284 33.5419 23.9762C28.095 23.7174 24.4992 29.746 27.5174 34.4497C22.9799 37.4849 17.0256 37.4898 12.4817 34.4493ZM23.3917 7.80562C23.3917 9.68499 21.8733 11.2084 20 11.2084C18.1267 11.2084 16.6082 9.68499 16.6082 7.80562C16.6082 5.92625 18.1267 4.40281 20 4.40281C21.8733 4.40281 23.3917 5.92625 23.3917 7.80562ZM36.612 30.7737C36.612 32.6531 35.0935 34.1765 33.2203 34.1765C31.347 34.1765 29.8285 32.6531 29.8285 30.7737C29.8285 28.8943 31.347 27.3709 33.2203 27.3709C35.0935 27.3709 36.612 28.8943 36.612 30.7737ZM10.1746 30.7737C10.1746 32.6531 8.65612 34.1765 6.78285 34.1765C4.90958 34.1765 3.39109 32.6531 3.39109 30.7737C3.39109 28.8943 4.90958 27.3709 6.78285 27.3709C8.65612 27.3709 10.1746 28.8943 10.1746 30.7737Z" fill="#1E674E" stroke="#1E674E" stroke-width="0.1"/>
</g>
<defs>
<clipPath id="clip0_32_236">
<rect width="40" height="40" fill="white"/>
</clipPath>
</defs>
</svg>
