<svg width="40" height="40" viewBox="0 0 40 40" fill="none" xmlns="http://www.w3.org/2000/svg">
<g clip-path="url(#clip0_32_216)">
<path d="M19.9998 0.583374C11.1722 0.583374 3.99155 7.81912 3.99155 16.7144C3.99155 23.3361 11.0734 31.7336 13.2309 34.14C15.026 36.1646 18.3034 39.5834 19.9833 39.5834C21.6796 39.5834 24.9406 36.1812 26.7357 34.1566C28.9097 31.7336 35.9915 23.3361 35.9915 16.7144C36.008 7.81912 28.8273 0.583374 19.9998 0.583374ZM24.9076 32.4804C22.3714 35.3515 20.6091 36.7123 19.9998 37.0442C19.3904 36.7289 17.6282 35.3515 15.0754 32.4804C11.1063 28.0493 6.46195 21.2783 6.46195 16.7144C6.46195 9.19657 12.5391 3.07274 19.9998 3.07274C27.4604 3.07274 33.5376 9.19657 33.5376 16.7144C33.5376 21.2783 28.8932 28.0493 24.9076 32.4804Z" fill="#1E674E" stroke="#1E674E" stroke-width="1.2"/>
<path d="M19.9915 8.58337C15.5834 8.58337 11.9915 12.1752 11.9915 16.5834C11.9915 20.9915 15.5834 24.5834 19.9915 24.5834C24.3997 24.5834 27.9915 20.9915 27.9915 16.5834C27.9752 12.1589 24.3997 8.58337 19.9915 8.58337ZM19.9915 22.1181C16.9385 22.1181 14.4405 19.6364 14.4405 16.567C14.4405 13.514 16.9222 11.016 19.9915 11.016C23.0446 11.016 25.5426 13.4977 25.5426 16.567C25.5262 19.6364 23.0446 22.1181 19.9915 22.1181Z" fill="#1E674E" stroke="#1E674E" stroke-width="1.2"/>
</g>
<defs>
<clipPath id="clip0_32_216">
<rect width="40" height="40" fill="white"/>
</clipPath>
</defs>
</svg>
