<svg width="21" height="21" viewBox="0 0 21 21" fill="none" xmlns="http://www.w3.org/2000/svg">
<path fill-rule="evenodd" clip-rule="evenodd" d="M18.4229 4.13387C18.6675 2.98108 17.4961 2.02309 16.3605 2.44721L2.44 7.64597C1.1718 8.11959 1.11529 9.83376 2.34972 10.3844L5.38121 11.7369L6.82333 16.6157C6.89824 16.8692 7.10628 17.0654 7.37023 17.1315C7.63418 17.1976 7.91461 17.1238 8.10742 16.9374L10.3289 14.7901L13.4407 17.046C14.344 17.7008 15.645 17.2239 15.8718 16.1548L18.4229 4.13387ZM2.99469 9.03368L16.9152 3.83493L14.3641 15.8559L10.7184 13.2128C10.412 12.9907 9.98333 13.0202 9.71252 13.2819L8.76105 14.2016L9.04694 12.6819L14.6485 7.26736C14.9212 7.00386 14.95 6.58602 14.716 6.28987C14.4819 5.99372 14.0574 5.91065 13.7226 6.09554L5.98664 10.3684L2.99469 9.03368ZM6.92988 11.5609L7.39652 13.1396L7.57568 12.1872C7.60368 12.0383 7.67798 11.9012 7.78866 11.7943L9.49697 10.1431L6.92988 11.5609Z" fill="#E8F2FB"/>
</svg>
