<svg width="21" height="21" viewBox="0 0 21 21" fill="none" xmlns="http://www.w3.org/2000/svg">
<path d="M10.3769 2.65521C5.98694 2.65521 2.40905 6.21521 2.40905 10.5832C2.40905 11.9832 2.7789 13.3432 3.47035 14.5432L2.34473 18.6552L6.56583 17.5512C7.73166 18.1832 9.04221 18.5192 10.3769 18.5192C14.7668 18.5192 18.3447 14.9592 18.3447 10.5912C18.3447 8.47121 17.5166 6.47921 16.0131 4.98321C14.5096 3.47921 12.5075 2.65521 10.3769 2.65521ZM10.3849 3.99121C12.1538 3.99121 13.8101 4.67921 15.0643 5.92721C16.3106 7.17521 17.002 8.83121 17.002 10.5912C17.002 14.2232 14.0271 17.1752 10.3769 17.1752C9.18694 17.1752 8.02111 16.8632 7.00804 16.2552L6.76684 16.1192L4.25829 16.7752L4.92563 14.3432L4.76483 14.0872C4.10553 13.0552 3.75176 11.8312 3.75176 10.5832C3.7598 6.95121 6.72664 3.99121 10.3849 3.99121ZM7.55478 6.91921C7.42613 6.91921 7.20905 6.96721 7.02412 7.16721C6.84724 7.36721 6.32463 7.85521 6.32463 8.82321C6.32463 9.79921 7.0402 10.7352 7.12865 10.8712C7.24121 11.0072 8.54372 13.0072 10.5457 13.8552C11.0201 14.0712 11.39 14.1912 11.6794 14.2792C12.1538 14.4312 12.5879 14.4072 12.9337 14.3592C13.3196 14.3032 14.1075 13.8792 14.2764 13.4152C14.4452 12.9512 14.4452 12.5592 14.397 12.4712C14.3407 12.3912 14.2121 12.3432 14.0111 12.2552C13.8101 12.1432 12.8291 11.6632 12.6523 11.5992C12.4673 11.5352 12.3548 11.5032 12.202 11.6952C12.0734 11.8952 11.6874 12.3432 11.5749 12.4712C11.4543 12.6072 11.3417 12.6232 11.1487 12.5272C10.9397 12.4232 10.2965 12.2152 9.54071 11.5432C8.94573 11.0152 8.55176 10.3672 8.43116 10.1672C8.33468 9.97521 8.42312 9.85521 8.5196 9.76721C8.60804 9.67921 8.73669 9.53521 8.81709 9.41521C8.92161 9.30321 8.95377 9.21521 9.01809 9.08721C9.08241 8.95121 9.05025 8.83921 9.00201 8.74321C8.95377 8.65521 8.55176 7.66321 8.38292 7.27121C8.22211 6.88721 8.06131 6.93521 7.93267 6.92721C7.8201 6.92721 7.69146 6.91921 7.55478 6.91921Z" fill="#E8F2FB"/>
</svg>
