<svg width="132" height="40" viewBox="0 0 132 40" fill="none" xmlns="http://www.w3.org/2000/svg">
<path d="M126.193 34.8302C128.79 34.8302 130.63 34.3396 132 33.283V28.4906C130.593 29.5094 128.898 30.1509 126.518 30.1509C122.515 30.1509 120.856 26.9057 120.856 21.7736C120.856 16.3774 122.875 13.6226 126.554 13.6226C128.718 13.6226 130.846 14.4151 131.964 15.1698V10.1887C130.774 9.50943 128.718 9.01886 125.905 9.01886C118.728 9.01886 115.013 14.4151 115.013 21.9623C115.049 30.2264 118.692 34.8302 126.193 34.8302ZM91.1017 32.6415V27.8491C89.3705 29.0943 86.4131 30.1887 83.7082 30.1887C79.5967 30.1887 78.0459 28.1509 77.7935 24H91.3541V20.9057C91.3541 12.2641 87.7115 9.01886 82.1213 9.01886C75.2689 9.01886 72.023 14.4906 72.023 22C72.023 30.6415 76.0984 34.8302 83.2394 34.8302C86.8099 34.8302 89.4426 33.8113 91.1017 32.6415ZM39.6361 9.47169V19.283H32.1344V9.47169H26.5082V34.3396H32.1344V23.9623H39.6361V34.3396H45.2623V9.47169H39.6361ZM70.6164 29.6604H68.1279V9.47169H51.7541V11.5849C51.7541 17.6604 51.3935 25.5094 49.4098 29.6604H47.6066V40H52.8V34.3396H65.3869V40H70.5803V29.6604H70.6164ZM109.026 34.3396H115.41L106.393 20.9434L114.328 9.47169H108.666L100.731 20.9434V9.47169H95.1049V34.3396H100.731V22.1132L109.026 34.3396ZM81.9771 13.6226C84.7541 13.6226 85.6197 16.0377 85.6197 19.1698V19.6604H77.7935C77.9377 15.6981 79.3082 13.6226 81.9771 13.6226ZM62.5017 29.6604H54.5672C56.118 25.9245 56.5508 19.1321 56.5508 14.8302V14.0755H62.5017V29.6604Z" fill="#2F2F2F"/>
<path d="M21.8197 34.3396H16.0852V4.64151H13.5246C8.83607 4.64151 6.38361 7.09434 6.38361 10.7547C6.38361 14.9057 8.07869 16.8302 11.577 19.283L14.4623 21.3208L6.16721 34.3396H0L7.46557 22.717C3.17377 19.5094 0.757377 16.3774 0.757377 11.0943C0.757377 4.49057 5.15738 0 13.4885 0H21.7836V34.3396H21.8197Z" fill="#FC3F1D"/>
</svg>
