<svg width="132" height="40" viewBox="0 0 132 40" fill="none" xmlns="http://www.w3.org/2000/svg">
<path d="M125.944 14.7127H132C131.234 9.19543 126.929 6.29536 120.945 6.29536C114.889 6.29536 110.839 9.30159 110.839 14.4652C110.839 20.3361 116.056 21.6445 118.829 22.1752C122.405 22.8472 125.907 22.9179 125.907 25.8886C125.907 27.9046 124.156 28.8948 121.675 28.8948C118.61 28.8948 116.567 27.4094 116.056 24.7217H110.073C110.438 30.5218 114.78 33.6341 121.164 33.6341C127.075 33.6341 131.927 31.017 131.927 25.3582C131.927 19.275 126.345 18.1787 122.441 17.6128C119.778 17.2238 116.859 16.8701 116.859 14.1468C116.859 12.237 118.355 11.07 120.872 11.07C123.791 11.07 125.542 12.6616 125.944 14.7127Z" fill="#2F2F2F"/>
<path d="M106.753 7.17961H101.025V32.8206H106.753V7.17961Z" fill="#2F2F2F"/>
<path d="M83.7313 23.8728H91.2107C90.0431 26.6316 87.4161 27.9399 84.388 27.9399C79.0614 27.9399 76.5805 23.9435 76.5805 19.9824C76.5805 15.9859 78.9154 11.9188 84.3516 11.9188C87.6717 11.9188 90.1524 13.4042 91.1011 16.0567L97.2669 16.0567C96.209 10.0798 90.8093 6.64917 84.4246 6.64917C76.544 6.64917 70.6335 11.848 70.6335 20.0532C70.6335 28.3644 77.0546 33.2804 84.388 33.2804C91.6119 33.2804 97.2669 28.7181 97.2669 21.574V19.4873H83.7313V23.8728Z" fill="#2F2F2F"/>
<path d="M57.5357 6.64914C50.9685 6.64914 46.1161 10.6455 46.1526 17.2945H52.0631C51.9901 14.3944 53.8872 11.7419 57.2438 11.7419C60.1626 11.7419 61.8773 13.7225 61.8773 15.9859C61.8773 18.2494 60.1626 19.5226 56.9884 20.902C52.6467 22.7764 49.5457 23.9789 46.3715 25.0399V32.8206H68.481V27.5862H53.3026C53.3026 27.5862 53.3531 27.5709 53.378 27.5637C55.9597 26.8054 57.8992 25.9815 60.1991 25.0045C65.1244 22.8826 67.9337 20.2299 67.9337 15.7031C67.9337 10.1503 63.7016 6.64914 57.5357 6.64914Z" fill="#2F2F2F"/>
<path d="M30.6103 23.8021C23.1674 23.8375 21.9635 28.1876 21.5622 31.8657L21.3798 33.4925H19.8839L19.7015 31.8657C19.3002 28.1876 18.0598 23.8375 10.8723 23.8021C9.66833 21.397 9.15755 19.4518 9.15755 17.2591C9.15755 11.7773 13.7911 6.64899 20.65 6.64899C27.5091 6.64899 32.0696 11.7418 32.0696 17.2946C32.0696 19.4518 31.8507 21.397 30.6103 23.8021ZM20.5772 0C9.2671 0 0 8.98328 0 19.9822C0 31.0169 9.2671 40 20.5772 40C31.9966 40 41.2272 31.0169 41.2272 19.9822C41.2272 8.98331 31.9966 0 20.5772 0Z" fill="#29B24A"/>
</svg>
