<svg width="18" height="18" viewBox="0 0 18 18" fill="none" xmlns="http://www.w3.org/2000/svg">
<g clip-path="url(#clip0_328_35)">
<path d="M17.3636 12.1524C17.2138 12.1524 17.0923 12.2739 17.0923 12.4237V15.5593C17.0923 15.8561 16.851 16.0973 16.5544 16.0973H1.58498C1.28821 16.0973 1.04695 15.8561 1.04695 15.5593V12.4237C1.04695 12.2739 0.925417 12.1524 0.775672 12.1524C0.625927 12.1524 0.504395 12.2739 0.504395 12.4237V15.5593C0.504395 16.155 0.989258 16.6399 1.58498 16.6399H16.5544C17.1502 16.6399 17.6349 16.155 17.6349 15.5593V12.4237C17.6349 12.2739 17.5133 12.1524 17.3636 12.1524Z" fill="#16385E" stroke="#16385E"/>
<path d="M10 1.79999C10 1.2477 9.55228 0.799988 9 0.799988C8.44772 0.799988 8 1.2477 8 1.79999L9 1.79999L10 1.79999ZM8.29289 13.3071C8.68342 13.6976 9.31658 13.6976 9.70711 13.3071L16.0711 6.94313C16.4616 6.55261 16.4616 5.91944 16.0711 5.52892C15.6805 5.1384 15.0474 5.1384 14.6569 5.52892L9 11.1858L3.34315 5.52892C2.95262 5.1384 2.31946 5.1384 1.92893 5.52892C1.53841 5.91944 1.53841 6.55261 1.92893 6.94313L8.29289 13.3071ZM9 1.79999L8 1.79999L8 12.6L9 12.6L10 12.6L10 1.79999L9 1.79999Z" fill="#16385E"/>
</g>
<defs>
<clipPath id="clip0_328_35">
<rect width="18" height="18" fill="white"/>
</clipPath>
</defs>
</svg>
