<svg width="40" height="40" viewBox="0 0 40 40" fill="none" xmlns="http://www.w3.org/2000/svg">
<path d="M38.1668 35.3333L31.3335 28.5C32.0002 26.8333 31.6668 24.6667 30.1668 23.3333C28.6668 21.8333 26.5002 21.5 24.6668 22.3333L27.8335 25.5L25.5002 27.8333L22.1668 24.5C21.3335 26.3333 21.6668 28.5 23.1668 30.1667C24.6668 31.6667 26.6668 32 28.3335 31.3333L35.1668 38.1667C35.5002 38.5 36.0002 38.5 36.1668 38.1667L37.8335 36.5C38.3335 36 38.3335 35.5 38.1668 35.3333ZM16.6668 20C20.3335 20 23.3335 17 23.3335 13.3333C23.3335 9.66667 20.3335 6.66667 16.6668 6.66667C13.0002 6.66667 10.0002 9.66667 10.0002 13.3333C10.0002 17 13.0002 20 16.6668 20ZM16.6668 10C18.5002 10 20.0002 11.5 20.0002 13.3333C20.0002 15.1667 18.5002 16.6667 16.6668 16.6667C14.8335 16.6667 13.3335 15.1667 13.3335 13.3333C13.3335 11.5 14.8335 10 16.6668 10ZM21.6668 33.3333H3.3335V28.3333C3.3335 23.8333 12.1668 21.6667 16.6668 21.6667C17.5002 21.6667 18.6668 21.8333 19.8335 22C19.1668 22.8333 18.8335 23.8333 18.5002 25C17.8335 25 17.3335 24.8333 16.6668 24.8333C11.6668 24.8333 6.50016 27.3333 6.50016 28.3333V30.1667H19.1668C19.6668 31.5 20.6668 32.5 21.6668 33.3333Z" fill="white"/>
</svg>
