<svg width="40" height="40" viewBox="0 0 40 40" fill="none" xmlns="http://www.w3.org/2000/svg">
<path d="M20.0002 10.8333C21.1052 10.8333 22.165 11.2723 22.9464 12.0537C23.7278 12.8351 24.1668 13.8949 24.1668 15C24.1668 15.5472 24.0591 16.089 23.8497 16.5945C23.6403 17.1 23.3334 17.5594 22.9464 17.9463C22.5595 18.3332 22.1002 18.6401 21.5947 18.8495C21.0892 19.0589 20.5473 19.1667 20.0002 19.1667C18.8951 19.1667 17.8353 18.7277 17.0539 17.9463C16.2725 17.1649 15.8335 16.1051 15.8335 15C15.8335 13.8949 16.2725 12.8351 17.0539 12.0537C17.8353 11.2723 18.8951 10.8333 20.0002 10.8333ZM20.0002 3.33333C23.0944 3.33333 26.0618 4.56249 28.2497 6.75042C30.4377 8.93834 31.6668 11.9058 31.6668 15C31.6668 23.75 20.0002 36.6667 20.0002 36.6667C20.0002 36.6667 8.3335 23.75 8.3335 15C8.3335 11.9058 9.56266 8.93834 11.7506 6.75042C13.9385 4.56249 16.906 3.33333 20.0002 3.33333ZM20.0002 6.66666C17.79 6.66666 15.6704 7.54464 14.1076 9.10744C12.5448 10.6702 11.6668 12.7899 11.6668 15C11.6668 16.6667 11.6668 20 20.0002 31.1833C28.3335 20 28.3335 16.6667 28.3335 15C28.3335 12.7899 27.4555 10.6702 25.8927 9.10744C24.3299 7.54464 22.2103 6.66666 20.0002 6.66666Z" fill="white"/>
</svg>
