<svg width="40" height="40" viewBox="0 0 40 40" fill="none" xmlns="http://www.w3.org/2000/svg">
<path d="M15.8332 11.6667C17.2165 11.6667 18.3332 12.7833 18.3332 14.1667C18.3332 15.55 17.2165 16.6667 15.8332 16.6667C14.4499 16.6667 13.3332 15.55 13.3332 14.1667C13.3332 12.7833 14.4499 11.6667 15.8332 11.6667ZM24.1665 23.3333C25.5499 23.3333 26.6665 24.45 26.6665 25.8333C26.6665 27.2167 25.5499 28.3333 24.1665 28.3333C22.7832 28.3333 21.6665 27.2167 21.6665 25.8333C21.6665 24.45 22.7832 23.3333 24.1665 23.3333ZM14.0165 28.3333L11.6665 25.9833L25.9832 11.6667L28.3332 14.0167L14.0165 28.3333ZM31.0832 4.75001L32.0999 11.1833L37.9499 14.1667L34.9999 20L37.9665 25.8333L32.0665 28.8167L31.0499 35.25L24.5665 34.2333L19.9499 38.85L15.3165 34.1667L8.8832 35.2333L7.84987 28.75L2.0332 25.7833L4.99987 19.95L2.04987 14.1667L7.89987 11.15L8.91654 4.78334L15.3665 5.83334L19.9999 1.15834L24.5999 5.76667L31.0832 4.75001ZM33.4999 15.6167L29.1665 13.3333L28.3332 8.51667L23.4999 9.21667L19.9999 5.83334L16.4999 9.21667L11.6665 8.51667L10.8332 13.3333L6.49987 15.6167L8.66654 20L6.49987 24.3833L10.8332 26.6667L11.6665 31.4833L16.4999 30.7833L19.9999 34.1667L23.4999 30.7833L28.3332 31.4833L29.1665 26.6667L33.4999 24.3833L31.3332 20L33.4999 15.6167Z" fill="white"/>
</svg>
