<svg width="75" height="75" viewBox="0 0 75 75" fill="none" xmlns="http://www.w3.org/2000/svg">
<g opacity="0.7">
<path d="M37.5 37.5V45.9375M37.5 37.5L44.7172 33.4403M37.5 37.5L30.2828 33.4403M62.5 23.4375L55.2828 27.4972M62.5 23.4375V31.875M62.5 23.4375L55.2828 19.3778M19.7172 47.5028L12.5 51.5625M12.5 51.5625L19.7172 55.6222M12.5 51.5625V43.125M12.5 23.4375L19.7172 27.4972M12.5 23.4375L19.7172 19.3778M12.5 23.4375V31.875M55.2828 47.5028L62.5 51.5625M62.5 51.5625L55.2828 55.6222M62.5 51.5625V43.125M37.5 9.375V17.8125M37.5 9.375L30.2826 13.4347M37.5 9.375L44.7175 13.4347M37.5 57.1875V65.625M37.5 65.625L44.7172 61.5653M37.5 65.625L30.2828 61.5653" stroke="#A1A1A4" stroke-width="3" stroke-linecap="round"/>
</g>
</svg>
