<svg width="75" height="75" viewBox="0 0 75 75" fill="none" xmlns="http://www.w3.org/2000/svg">
<g opacity="0.7">
<path d="M19.8002 34.8545H11.3714C9.50945 34.8545 8 36.3598 8 38.2167V55.0279C8 56.8849 9.50945 58.3901 11.3714 58.3901H21.4856M66.8257 38.8576L59.5209 58.6073C58.4673 61.4558 55.64 63.2475 52.6081 62.9722C45.9806 62.3707 34.2798 61.2884 25.7405 60.39C22.3467 60.0326 19.8002 57.169 19.8002 53.7657V36.7115C19.8002 34.8777 20.5512 33.1234 21.8791 31.855L38.8575 15.6379C39.0922 15.4138 39.3056 15.1684 39.5257 14.9302C41.3389 12.9696 44.3155 12.424 46.7587 13.6573C49.3524 14.9652 50.5971 17.8964 49.704 20.5947L45.4024 29.5873C44.8687 30.703 45.6846 31.9922 46.9239 31.9922H61.3107C63.0649 31.9922 64.7199 32.7754 65.7994 34.1168C66.8763 35.4584 67.2576 37.2084 66.8257 38.8576Z" stroke="#A1A1A4" stroke-width="3" stroke-linecap="round"/>
</g>
</svg>
