<svg width="40" height="40" viewBox="0 0 40 40" fill="none" xmlns="http://www.w3.org/2000/svg">
<g clip-path="url(#clip0_32_229)">
<g clip-path="url(#clip1_32_229)">
<path fill-rule="evenodd" clip-rule="evenodd" d="M38.7991 21.0078C38.8925 20.6145 38.9392 20.4178 38.9717 20.129C39.0041 19.8402 39.0019 19.6023 38.9975 19.1262C38.8588 4.23049 35.3265 1 20 1C4.67343 1 1.14116 4.23048 1.00252 19.1262C0.998085 19.6021 0.995869 19.8404 1.02833 20.129C1.06078 20.4178 1.10748 20.6145 1.20086 21.0076C4.01923 32.8749 14.0257 37.3006 18.1758 38.6507C18.8917 38.8836 19.2497 39 20 39C20.7504 39 21.1083 38.8836 21.8242 38.6507C25.9742 37.3008 35.9808 32.875 38.7991 21.0078ZM35.8307 19.1559C35.7607 11.6406 34.7597 8.43826 33.0201 6.78935C31.2257 5.08829 27.7704 4.17979 20 4.17979C12.2297 4.17979 8.77438 5.08829 6.97989 6.78933C5.24039 8.43826 4.2393 11.6406 4.16934 19.1559C4.1645 19.6762 4.16855 19.7123 4.17528 19.7722C4.18011 19.8152 4.18445 19.8429 4.19438 19.8915C4.2094 19.9653 4.23105 20.058 4.28148 20.2703C6.70528 30.476 15.3213 34.3797 19.152 35.6258C19.3401 35.6869 19.4588 35.7254 19.5617 35.7561C19.6567 35.7846 19.7058 35.7964 19.7335 35.8025L19.7362 35.8029C19.7601 35.8082 19.8159 35.8202 20 35.8202C20.1842 35.8202 20.2399 35.8082 20.2638 35.8029L20.2665 35.8025C20.2942 35.7964 20.3433 35.7846 20.4383 35.7561C20.5412 35.7254 20.6599 35.6869 20.848 35.6258C24.6788 34.3797 33.2948 30.476 35.7186 20.2703C35.7689 20.058 35.7906 19.9653 35.8056 19.8915C35.8156 19.8429 35.8199 19.8155 35.8246 19.7725C35.8314 19.7126 35.8356 19.6764 35.8307 19.1559Z" fill="#1E674E" stroke="#1E674E" stroke-width="0.6"/>
<path d="M27.5443 16.4387C28.1519 15.8808 28.1519 14.9763 27.5443 14.4184C26.937 13.8605 25.9521 13.8605 25.3445 14.4184L18.6667 20.5511L16.6555 18.704C16.048 18.1462 15.0631 18.1462 14.4556 18.704C13.8481 19.262 13.8481 20.1665 14.4556 20.7244L17.5667 23.5815C18.1742 24.1395 19.1591 24.1395 19.7667 23.5815L27.5443 16.4387Z" fill="#1E674E" stroke="#1E674E" stroke-width="0.6"/>
</g>
</g>
<defs>
<clipPath id="clip0_32_229">
<rect width="40" height="40" fill="white"/>
</clipPath>
<clipPath id="clip1_32_229">
<rect width="40" height="40" fill="white"/>
</clipPath>
</defs>
</svg>
