<svg width="110" height="28" viewBox="0 0 110 28" fill="none" xmlns="http://www.w3.org/2000/svg">
<g clip-path="url(#clip0_101_1079)">
<path fill-rule="evenodd" clip-rule="evenodd" d="M49.3878 19.4051L50.7844 21.8551H53.5533L44.5659 6.09167L35.5789 21.8551H38.3475L39.7441 19.4051H49.3878ZM47.9974 16.9669L44.5659 10.9477L41.1345 16.9669H47.9974Z" fill="white"/>
<path d="M71.697 6.09167V8.53876H77.59V21.8387H80.3952V8.53876H86.2882V6.09167H71.697Z" fill="white"/>
<path fill-rule="evenodd" clip-rule="evenodd" d="M63.909 8.54986H59.014L57.3649 8.53877L55.6306 6.1138H64.2378C66.9494 6.1138 69.1679 7.93541 69.1679 10.6678C69.1679 12.6979 67.9706 14.2672 65.7636 14.9365L70.0836 21.8387H66.9259L62.7585 15.1671H59.014V21.8387H56.2087V12.7858H59.014H63.909C65.1417 12.7858 66.4095 11.9846 66.4095 10.6678C66.4095 9.42787 65.2471 8.54986 63.909 8.54986Z" fill="white"/>
<path d="M0 27.6371L16.0341 0L20.0426 6.90928L16.0341 13.8185H24.0511L32.0681 27.6371H0Z" fill="#166FF5"/>
<path fill-rule="evenodd" clip-rule="evenodd" d="M109.807 24.0579V3.76575H97.0977L86.4231 17.8992L91.3 24.0579H109.807Z" fill="white"/>
<path fill-rule="evenodd" clip-rule="evenodd" d="M101.97 21.5775C104.692 21.5775 106.898 19.3665 106.898 16.6385C106.898 16.3964 106.881 16.1586 106.847 15.9258H106.843C106.499 13.5355 104.447 11.6992 101.966 11.6992H98.9554L102.723 7.00479L103.322 6.25916H100.202L95.9051 11.6118C95.0016 12.738 93.6676 14.4756 93.4581 15.9258H93.4546C93.4214 16.1586 93.4039 16.3964 93.4039 16.6385C93.4039 19.3665 95.61 21.5775 98.3312 21.5775H101.97ZM101.873 13.9792H101.966V13.9808C103.389 14.0304 104.527 15.2009 104.527 16.6385H104.531C104.531 18.0759 103.392 19.2465 101.97 19.296V19.2975H101.877H98.4246H98.3312V19.296C96.9091 19.2465 95.7716 18.0759 95.7716 16.6385H95.775C95.775 15.2009 96.9126 14.0304 98.3347 13.9808V13.9792H98.4281H101.873Z" fill="#1C1C20"/>
</g>
<defs>
<clipPath id="clip0_101_1079">
<rect width="110" height="28" fill="white"/>
</clipPath>
</defs>
</svg>
