<svg width="95" height="22" viewBox="0 0 95 22" fill="none" xmlns="http://www.w3.org/2000/svg">
<g clip-path="url(#clip0_101_1086)">
<mask id="mask0_101_1086" style="mask-type:luminance" maskUnits="userSpaceOnUse" x="0" y="0" width="95" height="22">
<path d="M95 0H0V22H95V0Z" fill="white"/>
</mask>
<g mask="url(#mask0_101_1086)">
<path d="M71.35 2.2176H72.6694V5.93472L75.7833 2.2176H76.9866V7.85664H75.6672V4.13952L72.5639 7.85664H71.35V2.2176ZM74.0839 1.55232C73.5139 1.55232 73.0776 1.42208 72.775 1.1616C72.4794 0.89408 72.3281 0.50688 72.3211 0H73.1972C73.2042 0.25344 73.2816 0.45408 73.4294 0.60192C73.5842 0.74976 73.7989 0.82368 74.0733 0.82368C74.3407 0.82368 74.5518 0.74976 74.7066 0.60192C74.8685 0.45408 74.9529 0.25344 74.96 0H75.8572C75.8502 0.50688 75.6953 0.89408 75.3928 1.1616C75.0902 1.42208 74.6539 1.55232 74.0839 1.55232Z" fill="#87878E"/>
<path d="M65.4174 4.07618C66.1352 4.07618 66.6841 4.2381 67.0641 4.56194C67.4441 4.88578 67.6341 5.34338 67.6341 5.93474C67.6341 6.55426 67.423 7.03298 67.0008 7.3709C66.5856 7.70882 65.9945 7.87426 65.2274 7.86722L62.673 7.85666V2.21762H63.9924V4.06562L65.4174 4.07618ZM68.3624 2.21762H69.6819V7.85666H68.3624V2.21762ZM65.1113 6.8957C65.4983 6.90274 65.7939 6.82178 65.998 6.65282C66.202 6.48386 66.3041 6.23746 66.3041 5.91362C66.3041 5.59682 66.2056 5.3645 66.0085 5.21666C65.8115 5.06882 65.5124 4.99138 65.1113 4.98434L63.9924 4.97378V6.88514L65.1113 6.8957Z" fill="#87878E"/>
<path d="M55.5319 2.21762H56.8513V4.50914H59.6907V2.21762H61.0102V7.85666H59.6907V5.6285H56.8513V7.85666H55.5319V2.21762Z" fill="#87878E"/>
<path d="M52.0691 7.93077C51.485 7.93077 50.9608 7.80757 50.4963 7.56117C50.0319 7.31477 49.6695 6.97333 49.4091 6.53685C49.1487 6.09333 49.0186 5.59349 49.0186 5.03733C49.0186 4.48117 49.1487 3.98485 49.4091 3.54837C49.6695 3.11189 50.0284 2.77045 50.4858 2.52405C50.9502 2.27765 51.478 2.15445 52.0691 2.15445C52.625 2.15445 53.1106 2.26709 53.5258 2.49237C53.948 2.71765 54.2647 3.04149 54.4758 3.46389L53.4624 4.05525C53.3006 3.79477 53.0965 3.60117 52.8502 3.47445C52.611 3.34069 52.3471 3.27381 52.0586 3.27381C51.566 3.27381 51.1578 3.43573 50.8341 3.75957C50.5104 4.07637 50.3486 4.50229 50.3486 5.03733C50.3486 5.57237 50.5069 6.00181 50.8236 6.32565C51.1473 6.64245 51.5589 6.80085 52.0586 6.80085C52.3471 6.80085 52.611 6.73749 52.8502 6.61077C53.0965 6.47701 53.3006 6.27989 53.4624 6.01941L54.4758 6.61077C54.2576 7.03317 53.9374 7.36053 53.5152 7.59285C53.1 7.81813 52.618 7.93077 52.0691 7.93077Z" fill="#87878E"/>
<path d="M45.6135 5.59682H44.5896V7.85666H43.2701V2.21762H44.5896V4.49858H45.6451L47.3129 2.21762H48.7274L46.6796 4.93154L48.8646 7.85666H47.3129L45.6135 5.59682Z" fill="#87878E"/>
<path d="M41.9325 5.06901C41.9325 5.16053 41.9255 5.29077 41.9114 5.45973H37.4886C37.566 5.87509 37.7666 6.20597 38.0903 6.45237C38.421 6.69173 38.8292 6.81141 39.3147 6.81141C39.934 6.81141 40.4442 6.60725 40.8453 6.19893L41.5525 7.01205C41.2992 7.31477 40.979 7.54357 40.592 7.69845C40.2049 7.85333 39.7685 7.93077 39.283 7.93077C38.6637 7.93077 38.1184 7.80757 37.647 7.56117C37.1755 7.31477 36.8096 6.97333 36.5492 6.53685C36.2959 6.09333 36.1692 5.59349 36.1692 5.03733C36.1692 4.48821 36.2923 3.99541 36.5386 3.55893C36.792 3.11541 37.1403 2.77045 37.5836 2.52405C38.027 2.27765 38.5266 2.15445 39.0825 2.15445C39.6314 2.15445 40.1205 2.27765 40.5497 2.52405C40.986 2.76341 41.3238 3.10485 41.5631 3.54837C41.8094 3.98485 41.9325 4.49173 41.9325 5.06901ZM39.0825 3.21045C38.6603 3.21045 38.3013 3.33717 38.0058 3.59061C37.7173 3.83701 37.5414 4.16789 37.4781 4.58325H40.6764C40.6201 4.17493 40.4477 3.84405 40.1592 3.59061C39.8707 3.33717 39.5118 3.21045 39.0825 3.21045Z" fill="#87878E"/>
<path d="M34.9834 2.21762V7.85666H33.6639V3.33698H31.5528L31.5 4.45634C31.4649 5.20258 31.3945 5.82914 31.2889 6.33602C31.1904 6.83586 31.018 7.23362 30.7717 7.5293C30.5324 7.81794 30.2017 7.96226 29.7795 7.96226C29.5824 7.96226 29.3397 7.92354 29.0511 7.8461L29.1145 6.7373C29.213 6.75842 29.2974 6.76898 29.3678 6.76898C29.6352 6.76898 29.8358 6.66338 29.9695 6.45218C30.1032 6.23394 30.1876 5.97698 30.2228 5.6813C30.265 5.37858 30.3002 4.94914 30.3284 4.39298L30.4234 2.21762H34.9834Z" fill="#87878E"/>
<path d="M28.1997 2.21762V7.85666H26.8908V3.33698H24.1147V7.85666H22.7953V2.21762H28.1997Z" fill="#87878E"/>
<path d="M19.9383 7.85666V4.11842L18.0383 7.2653H17.4683L15.5999 4.10786V7.85666H14.3966V2.21762H15.7794L17.7849 5.74466L19.8855 2.21762H21.1205L21.1311 7.85666H19.9383Z" fill="#87878E"/>
<path d="M10.1904 7.93077C9.62042 7.93077 9.10672 7.80757 8.64929 7.56117C8.19189 7.31477 7.833 6.97333 7.57263 6.53685C7.31929 6.09333 7.19263 5.59349 7.19263 5.03733C7.19263 4.48117 7.31929 3.98485 7.57263 3.54837C7.833 3.11189 8.19189 2.77045 8.64929 2.52405C9.10672 2.27765 9.62042 2.15445 10.1904 2.15445C10.7675 2.15445 11.2847 2.27765 11.7421 2.52405C12.1995 2.77045 12.5549 3.11189 12.8082 3.54837C13.0686 3.98485 13.1988 4.48117 13.1988 5.03733C13.1988 5.59349 13.0686 6.09333 12.8082 6.53685C12.5549 6.97333 12.1995 7.31477 11.7421 7.56117C11.2847 7.80757 10.7675 7.93077 10.1904 7.93077ZM10.1904 6.80085C10.676 6.80085 11.0771 6.63893 11.3938 6.31509C11.7104 5.99125 11.8688 5.56533 11.8688 5.03733C11.8688 4.50933 11.7104 4.08341 11.3938 3.75957C11.0771 3.43573 10.676 3.27381 10.1904 3.27381C9.70487 3.27381 9.30376 3.43573 8.98709 3.75957C8.67744 4.08341 8.52263 4.50933 8.52263 5.03733C8.52263 5.56533 8.67744 5.99125 8.98709 6.31509C9.30376 6.63893 9.70487 6.80085 10.1904 6.80085Z" fill="#87878E"/>
<path d="M3.35663 4.74174H1.98441V7.85694H0.633301V0.464935H1.98441V3.55902H3.39886L5.52052 0.464935H6.97719L4.45441 4.04478L7.07219 7.85694H5.52052L3.35663 4.74174Z" fill="#87878E"/>
<path d="M95.1469 15.657H92.1385V20.1766H90.8191V14.5376H95.1469V15.657Z" fill="#87878E"/>
<path d="M83.7837 14.5376H85.1031V16.8291H87.9426V14.5376H89.2622V20.1766H87.9426V17.9485H85.1031V20.1766H83.7837V14.5376Z" fill="#87878E"/>
<path d="M76.5833 14.5376H77.9027V18.2547L81.0166 14.5376H82.2199V20.1766H80.9005V16.4595L77.7971 20.1766H76.5833V14.5376Z" fill="#87878E"/>
<path d="M75.8372 15.657H73.8633V20.1766H72.5439V15.657H70.5594V14.5376H75.8372V15.657Z" fill="#87878E"/>
<path d="M70.3465 17.389C70.3465 17.4805 70.3394 17.6107 70.3254 17.7797H65.9026C65.98 18.1951 66.1805 18.5259 66.5042 18.7723C66.835 19.0117 67.2431 19.1314 67.7287 19.1314C68.3479 19.1314 68.8581 18.9272 69.2592 18.5189L69.9665 19.332C69.7131 19.6347 69.3929 19.8635 69.0059 20.0184C68.6189 20.1733 68.1826 20.2507 67.697 20.2507C67.0778 20.2507 66.5324 20.1275 66.0609 19.8811C65.5894 19.6347 65.2235 19.2933 64.9631 18.8568C64.7098 18.4133 64.5831 17.9135 64.5831 17.3573C64.5831 16.8082 64.7063 16.3154 64.9526 15.8789C65.2059 15.4354 65.5542 15.0904 65.9976 14.844C66.4409 14.5976 66.9405 14.4744 67.4965 14.4744C68.0454 14.4744 68.5344 14.5976 68.9637 14.844C69.4 15.0834 69.7378 15.4248 69.977 15.8683C70.2233 16.3048 70.3465 16.8117 70.3465 17.389ZM67.4965 15.5304C67.0742 15.5304 66.7153 15.6571 66.4198 15.9106C66.1313 16.157 65.9554 16.4879 65.892 16.9032H69.0904C69.0341 16.4949 68.8617 16.164 68.5731 15.9106C68.2846 15.6571 67.9257 15.5304 67.4965 15.5304Z" fill="#87878E"/>
<path d="M61.2835 17.9168H60.2596V20.1766H58.9402V14.5376H60.2596V16.8186H61.3152L62.983 14.5376H64.3974L62.3496 17.2515L64.5346 20.1766H62.983L61.2835 17.9168Z" fill="#87878E"/>
<path d="M54.9776 14.4744C55.5265 14.4744 56.0156 14.5941 56.4448 14.8335C56.8811 15.0728 57.2224 15.4107 57.4687 15.8472C57.715 16.2837 57.8382 16.7871 57.8382 17.3573C57.8382 17.9275 57.715 18.4344 57.4687 18.8779C57.2224 19.3144 56.8811 19.6523 56.4448 19.8917C56.0156 20.1311 55.5265 20.2507 54.9776 20.2507C54.2176 20.2507 53.6159 19.9973 53.1726 19.4904V22.2255H51.8531V14.5378H53.1093V15.277C53.3274 15.0095 53.5948 14.8088 53.9115 14.6751C54.2352 14.5413 54.5906 14.4744 54.9776 14.4744ZM54.8298 19.1208C55.3154 19.1208 55.713 18.9589 56.0226 18.6351C56.3393 18.3112 56.4976 17.8853 56.4976 17.3573C56.4976 16.8293 56.3393 16.4034 56.0226 16.0795C55.713 15.7557 55.3154 15.5938 54.8298 15.5938C54.5132 15.5938 54.2282 15.6677 53.9748 15.8155C53.7215 15.9563 53.5209 16.1605 53.3731 16.428C53.2254 16.6955 53.1515 17.0053 53.1515 17.3573C53.1515 17.7093 53.2254 18.0191 53.3731 18.2866C53.5209 18.5541 53.7215 18.7618 53.9748 18.9096C54.2282 19.0504 54.5132 19.1208 54.8298 19.1208Z" fill="#87878E"/>
<path d="M47.8666 14.4744C48.6969 14.4744 49.3303 14.6751 49.7666 15.0763C50.2099 15.4706 50.4316 16.069 50.4316 16.8715V20.1768H49.186V19.4904C49.0242 19.7368 48.7919 19.9269 48.4894 20.0607C48.1938 20.1874 47.8349 20.2507 47.4127 20.2507C46.9905 20.2507 46.621 20.1803 46.3044 20.0395C45.9877 19.8917 45.7414 19.6911 45.5655 19.4376C45.3966 19.1771 45.3121 18.885 45.3121 18.5611C45.3121 18.0543 45.4986 17.6495 45.8716 17.3467C46.2516 17.037 46.8462 16.8821 47.6555 16.8821H49.1121V16.7976C49.1121 16.4034 48.9925 16.1007 48.7532 15.8895C48.521 15.6783 48.1727 15.5727 47.7082 15.5727C47.3916 15.5727 47.0784 15.6219 46.7688 15.7205C46.4662 15.8191 46.2094 15.9563 45.9982 16.1323L45.481 15.1714C45.7766 14.9461 46.1319 14.7736 46.5471 14.6539C46.9623 14.5343 47.4021 14.4744 47.8666 14.4744ZM47.6871 19.2898C48.0179 19.2898 48.3099 19.2159 48.5632 19.068C48.8236 18.9131 49.0066 18.6949 49.1121 18.4133V17.7586H47.7505C46.9905 17.7586 46.6105 18.0085 46.6105 18.5083C46.6105 18.7477 46.7055 18.9378 46.8955 19.0786C47.0855 19.2194 47.3494 19.2898 47.6871 19.2898Z" fill="#87878E"/>
<path d="M43.0146 20.1766V16.4384L41.1146 19.5853H40.5446L38.6762 16.4278V20.1766H37.4729V14.5376H38.8557L40.8612 18.0646L42.9618 14.5376H44.1968L44.2073 20.1766H43.0146Z" fill="#87878E"/>
<path d="M33.3164 16.6921H36.2192V17.7903H33.3164V16.6921Z" fill="#87878E"/>
<path d="M30.7612 12.3415H32.0807V20.177H30.7612V12.3415Z" fill="#87878E"/>
<path d="M26.7141 14.4744C27.5445 14.4744 28.1778 14.6751 28.6141 15.0763C29.0574 15.4706 29.2791 16.069 29.2791 16.8715V20.1768H28.0336V19.4904C27.8717 19.7368 27.6395 19.9269 27.3369 20.0607C27.0413 20.1874 26.6824 20.2507 26.2602 20.2507C25.838 20.2507 25.4686 20.1803 25.1519 20.0395C24.8352 19.8917 24.5889 19.6911 24.413 19.4376C24.2441 19.1771 24.1597 18.885 24.1597 18.5611C24.1597 18.0543 24.3461 17.6495 24.7191 17.3467C25.0991 17.037 25.6937 16.8821 26.503 16.8821H27.9597V16.7976C27.9597 16.4034 27.84 16.1007 27.6008 15.8895C27.3686 15.6783 27.0202 15.5727 26.5558 15.5727C26.2391 15.5727 25.926 15.6219 25.6163 15.7205C25.3137 15.8191 25.0569 15.9563 24.8458 16.1323L24.3286 15.1714C24.6241 14.9461 24.9795 14.7736 25.3947 14.6539C25.8099 14.5343 26.2497 14.4744 26.7141 14.4744ZM26.5347 19.2898C26.8654 19.2898 27.1574 19.2159 27.4108 19.068C27.6711 18.9131 27.8541 18.6949 27.9597 18.4133V17.7586H26.598C25.838 17.7586 25.458 18.0085 25.458 18.5083C25.458 18.7477 25.553 18.9378 25.743 19.0786C25.933 19.2194 26.1969 19.2898 26.5347 19.2898Z" fill="#87878E"/>
<path d="M23.6865 19.8704C23.5317 19.9971 23.3417 20.0922 23.1165 20.1555C22.8983 20.2189 22.6661 20.2506 22.4198 20.2506C21.8006 20.2506 21.322 20.0887 20.9843 19.7648C20.6465 19.441 20.4776 18.9693 20.4776 18.3498V15.6359H19.5487V14.5799H20.4776V13.2915H21.797V14.5799H23.3065V15.6359H21.797V18.3181C21.797 18.5927 21.8639 18.8039 21.9976 18.9517C22.1313 19.0925 22.3248 19.1629 22.5782 19.1629C22.8737 19.1629 23.12 19.0855 23.317 18.9306L23.6865 19.8704Z" fill="#87878E"/>
<path d="M17.4581 14.5377H18.7776V20.1767H17.4581V14.5377ZM18.1231 13.6084C17.8839 13.6084 17.6833 13.5345 17.5215 13.3867C17.3596 13.2318 17.2787 13.0417 17.2787 12.8164C17.2787 12.5911 17.3596 12.4046 17.5215 12.2567C17.6833 12.1019 17.8839 12.0244 18.1231 12.0244C18.3624 12.0244 18.5629 12.0983 18.7248 12.2462C18.8866 12.387 18.9676 12.5665 18.9676 12.7847C18.9676 13.0171 18.8866 13.2142 18.7248 13.3761C18.57 13.531 18.3694 13.6084 18.1231 13.6084Z" fill="#87878E"/>
<path d="M15.9344 14.5378V19.3215C15.9344 21.3067 14.921 22.2994 12.8944 22.2994C12.3525 22.2994 11.8388 22.229 11.3533 22.0882C10.8677 21.9544 10.4666 21.7573 10.1499 21.4968L10.741 20.5042C10.9873 20.7083 11.297 20.8703 11.6699 20.9899C12.0499 21.1167 12.4335 21.18 12.8205 21.18C13.4397 21.18 13.8936 21.0392 14.1822 20.7576C14.4707 20.476 14.6149 20.0466 14.6149 19.4693V19.1736C14.3897 19.42 14.1153 19.6066 13.7916 19.7333C13.4679 19.86 13.1125 19.9234 12.7255 19.9234C12.1907 19.9234 11.7051 19.8107 11.2688 19.5855C10.8396 19.3531 10.4983 19.0293 10.2449 18.6139C9.99864 18.1986 9.87549 17.7234 9.87549 17.1883C9.87549 16.6533 9.99864 16.1816 10.2449 15.7733C10.4983 15.3579 10.8396 15.0376 11.2688 14.8123C11.7051 14.5871 12.1907 14.4744 12.7255 14.4744C13.1336 14.4744 13.5031 14.5413 13.8338 14.6751C14.1716 14.8088 14.4531 15.013 14.6783 15.2875V14.5378H15.9344ZM12.926 18.804C13.4257 18.804 13.8338 18.6562 14.1505 18.3605C14.4742 18.0578 14.636 17.6671 14.636 17.1883C14.636 16.7167 14.4742 16.333 14.1505 16.0373C13.8338 15.7416 13.4257 15.5938 12.926 15.5938C12.4194 15.5938 12.0042 15.7416 11.6805 16.0373C11.3638 16.333 11.2055 16.7167 11.2055 17.1883C11.2055 17.6671 11.3638 18.0578 11.6805 18.3605C12.0042 18.6562 12.4194 18.804 12.926 18.804Z" fill="#87878E"/>
<path d="M7.5 14.5377H8.81947V20.1767H7.5V14.5377ZM8.165 13.6084C7.92574 13.6084 7.72519 13.5345 7.56333 13.3867C7.40148 13.2318 7.32056 13.0417 7.32056 12.8164C7.32056 12.5911 7.40148 12.4046 7.56333 12.2567C7.72519 12.1019 7.92574 12.0244 8.165 12.0244C8.40426 12.0244 8.60482 12.0983 8.76667 12.2462C8.92855 12.387 9.00947 12.5665 9.00947 12.7847C9.00947 13.0171 8.92855 13.2142 8.76667 13.3761C8.61185 13.531 8.4113 13.6084 8.165 13.6084Z" fill="#87878E"/>
<path d="M5.985 12.3415V20.177H4.71833V19.4483C4.50019 19.7159 4.22926 19.9165 3.90556 20.0503C3.58889 20.184 3.23704 20.2509 2.85 20.2509C2.30815 20.2509 1.81907 20.1312 1.38278 19.8919C0.953519 19.6525 0.615741 19.3146 0.369444 18.8781C0.123148 18.4346 0 17.9277 0 17.3575C0 16.7872 0.123148 16.2839 0.369444 15.8474C0.615741 15.4109 0.953519 15.073 1.38278 14.8336C1.81907 14.5943 2.30815 14.4746 2.85 14.4746C3.22296 14.4746 3.56426 14.5379 3.87389 14.6647C4.18352 14.7914 4.44741 14.9815 4.66556 15.2349V12.3415H5.985ZM3.00833 19.121C3.325 19.121 3.61 19.0506 3.86333 18.9098C4.11667 18.7619 4.31722 18.5543 4.465 18.2867C4.61278 18.0192 4.68667 17.7095 4.68667 17.3575C4.68667 17.0055 4.61278 16.6957 4.465 16.4282C4.31722 16.1607 4.11667 15.9565 3.86333 15.8157C3.61 15.6679 3.325 15.5939 3.00833 15.5939C2.69167 15.5939 2.40667 15.6679 2.15333 15.8157C1.9 15.9565 1.69944 16.1607 1.55167 16.4282C1.40389 16.6957 1.33 17.0055 1.33 17.3575C1.33 17.7095 1.40389 18.0192 1.55167 18.2867C1.69944 18.5543 1.9 18.7619 2.15333 18.9098C2.40667 19.0506 2.69167 19.121 3.00833 19.121Z" fill="#87878E"/>
</g>
</g>
<defs>
<clipPath id="clip0_101_1086">
<rect width="95" height="22" fill="white"/>
</clipPath>
</defs>
</svg>
