<svg width="198" height="31" viewBox="0 0 198 31" fill="none" xmlns="http://www.w3.org/2000/svg">
<path d="M194.862 25.5746V15.6753L189.862 24.0086H188.362L183.447 15.6473V25.5746H180.28V10.6417H183.919L189.196 19.9818L194.723 10.6417H197.972L198 25.5746H194.862Z" fill="white"/>
<path d="M168.937 25.7705C167.437 25.7705 166.085 25.4442 164.882 24.7917C163.678 24.1392 162.734 23.235 162.049 22.0792C161.382 20.9047 161.049 19.581 161.049 18.1082C161.049 16.6354 161.382 15.3211 162.049 14.1652C162.734 13.0094 163.678 12.1052 164.882 11.4527C166.085 10.8002 167.437 10.4739 168.937 10.4739C170.455 10.4739 171.816 10.8002 173.019 11.4527C174.223 12.1052 175.158 13.0094 175.825 14.1652C176.51 15.3211 176.852 16.6354 176.852 18.1082C176.852 19.581 176.51 20.9047 175.825 22.0792C175.158 23.235 174.223 24.1392 173.019 24.7917C171.816 25.4442 170.455 25.7705 168.937 25.7705ZM168.937 22.7783C170.214 22.7783 171.27 22.3495 172.103 21.4919C172.936 20.6343 173.353 19.5064 173.353 18.1082C173.353 16.71 172.936 15.5821 172.103 14.7245C171.27 13.867 170.214 13.4382 168.937 13.4382C167.659 13.4382 166.604 13.867 165.77 14.7245C164.956 15.5821 164.548 16.71 164.548 18.1082C164.548 19.5064 164.956 20.6343 165.77 21.4919C166.604 22.3495 167.659 22.7783 168.937 22.7783Z" fill="white"/>
<path d="M151.342 10.4739C152.786 10.4739 154.073 10.7909 155.203 11.4247C156.351 12.0586 157.249 12.9535 157.897 14.1093C158.545 15.2652 158.869 16.5981 158.869 18.1082C158.869 19.6183 158.545 20.9606 157.897 22.1351C157.249 23.291 156.351 24.1858 155.203 24.8197C154.073 25.4535 152.786 25.7705 151.342 25.7705C149.342 25.7705 147.759 25.0993 146.593 23.757V30.9998H143.121V10.6417H146.426V12.5992C147 11.8908 147.704 11.3595 148.537 11.0053C149.389 10.6511 150.324 10.4739 151.342 10.4739ZM150.953 22.7783C152.231 22.7783 153.277 22.3495 154.092 21.4919C154.925 20.6343 155.342 19.5064 155.342 18.1082C155.342 16.71 154.925 15.5821 154.092 14.7245C153.277 13.867 152.231 13.4382 150.953 13.4382C150.12 13.4382 149.37 13.6339 148.704 14.0254C148.037 14.3983 147.509 14.9389 147.121 15.6474C146.732 16.3558 146.537 17.1761 146.537 18.1082C146.537 19.0404 146.732 19.8607 147.121 20.5691C147.509 21.2775 148.037 21.8275 148.704 22.219C149.37 22.5918 150.12 22.7783 150.953 22.7783Z" fill="white"/>
<path d="M138.028 5.99983V25.5749H134.473V9.07591H124.391V25.5749H120.836V5.99983H138.028Z" fill="white"/>
<path d="M111.031 25.7705C109.494 25.7705 108.114 25.4442 106.892 24.7917C105.67 24.1392 104.717 23.235 104.032 22.0792C103.346 20.9047 103.004 19.581 103.004 18.1082C103.004 16.6354 103.346 15.3211 104.032 14.1652C104.717 13.0094 105.661 12.1052 106.864 11.4527C108.087 10.8002 109.475 10.4739 111.031 10.4739C112.493 10.4739 113.771 10.7722 114.863 11.3688C115.974 11.9654 116.808 12.823 117.363 13.9415L114.697 15.5075C114.271 14.8177 113.734 14.3051 113.086 13.9695C112.456 13.6153 111.762 13.4382 111.003 13.4382C109.707 13.4382 108.633 13.867 107.781 14.7245C106.929 15.5635 106.503 16.6914 106.503 18.1082C106.503 19.5251 106.92 20.6623 107.753 21.5199C108.605 22.3588 109.688 22.7783 111.003 22.7783C111.762 22.7783 112.456 22.6105 113.086 22.2749C113.734 21.9207 114.271 21.3987 114.697 20.7089L117.363 22.2749C116.789 23.3935 115.947 24.2604 114.836 24.8756C113.743 25.4722 112.475 25.7705 111.031 25.7705Z" fill="white"/>
<path d="M100.481 18.1921C100.481 18.4344 100.462 18.7793 100.425 19.2268H88.7882C88.9918 20.3267 89.5195 21.2029 90.3713 21.8554C91.2415 22.4893 92.3154 22.8062 93.5931 22.8062C95.2225 22.8062 96.5649 22.2655 97.6203 21.1843L99.4811 23.3375C98.8146 24.1392 97.9721 24.7451 96.9537 25.1552C95.9353 25.5653 94.7873 25.7704 93.5097 25.7704C91.8803 25.7704 90.4453 25.4442 89.2048 24.7917C87.9642 24.1392 87.0014 23.235 86.3163 22.0791C85.6497 20.9046 85.3164 19.581 85.3164 18.1082C85.3164 16.654 85.6404 15.349 86.2885 14.1932C86.9551 13.0187 87.8716 12.1052 89.0381 11.4527C90.2046 10.8002 91.5193 10.4739 92.982 10.4739C94.4263 10.4739 95.7131 10.8002 96.8426 11.4527C97.9906 12.0865 98.8794 12.9907 99.5089 14.1652C100.157 15.3211 100.481 16.6633 100.481 18.1921ZM92.982 13.2703C91.8711 13.2703 90.9268 13.6059 90.1491 14.2771C89.3899 14.9296 88.927 15.8058 88.7604 16.9057H97.1759C97.0278 15.8244 96.5741 14.9482 95.815 14.2771C95.0558 13.6059 94.1115 13.2703 92.982 13.2703Z" fill="white"/>
<path d="M80.147 17.8003C81.9801 18.3596 82.8966 19.5527 82.8966 21.3798C82.8966 22.722 82.3967 23.7567 81.3968 24.4838C80.3969 25.2109 78.9157 25.5744 76.953 25.5744H69.3984V10.6414H76.6474C78.462 10.6414 79.8785 10.977 80.8969 11.6481C81.9152 12.3193 82.4244 13.2701 82.4244 14.5005C82.4244 15.2649 82.2208 15.9267 81.8134 16.486C81.4246 17.0453 80.8691 17.4834 80.147 17.8003ZM72.7035 16.8775H76.3419C78.138 16.8775 79.036 16.2529 79.036 15.0039C79.036 13.7921 78.138 13.1862 76.3419 13.1862H72.7035V16.8775ZM76.6752 23.0297C78.5824 23.0297 79.5359 22.4051 79.5359 21.156C79.5359 20.5035 79.3138 20.0188 78.8694 19.7019C78.425 19.3663 77.7306 19.1985 76.7863 19.1985H72.7035V23.0297H76.6752Z" fill="white"/>
<path d="M58.3541 10.4739C60.539 10.4739 62.2054 11.0053 63.3534 12.0679C64.5199 13.1119 65.1032 14.6966 65.1032 16.8219V25.5747H61.8259V23.757C61.4 24.4095 60.789 24.9129 59.9928 25.2671C59.2151 25.6027 58.2708 25.7705 57.1598 25.7705C56.0489 25.7705 55.0768 25.584 54.2436 25.2112C53.4103 24.8197 52.7623 24.2884 52.2994 23.6172C51.855 22.9274 51.6328 22.1537 51.6328 21.2962C51.6328 19.9539 52.1235 18.8819 53.1048 18.0803C54.1047 17.26 55.6693 16.8498 57.7986 16.8498H61.6314V16.6261C61.6314 15.5821 61.3167 14.7805 60.6871 14.2212C60.0761 13.6619 59.1596 13.3822 57.9375 13.3822C57.1043 13.3822 56.2803 13.5127 55.4656 13.7737C54.6694 14.0347 53.9936 14.3983 53.4381 14.8644L52.0772 12.3196C52.8549 11.723 53.7899 11.2663 54.8824 10.9493C55.9748 10.6324 57.1321 10.4739 58.3541 10.4739ZM57.882 23.2257C58.7522 23.2257 59.5206 23.03 60.1872 22.6385C60.8723 22.2283 61.3537 21.6504 61.6314 20.9047V19.1709H58.0486C56.0489 19.1709 55.049 19.8327 55.049 21.1563C55.049 21.7902 55.299 22.2936 55.7989 22.6664C56.2988 23.0393 56.9932 23.2257 57.882 23.2257Z" fill="white"/>
<path d="M47.7627 5.99983V25.5749H44.1521V17.1856H34.0979V25.5749H30.4873V5.99983H34.0979V14.0815H44.1521V5.99983H47.7627Z" fill="white"/>
<path d="M19.0158 15.8704L19.0158 19.4454L22.1299 19.4454L22.1299 7.88259L6.36758 25.4346L0 25.4346L25.6791 -7.16996e-05L25.6791 12.0561L25.6791 25.4346L10.6474 25.4346L19.0158 15.8704Z" fill="#1E674E"/>
</svg>
