<svg width="20" height="20" viewBox="0 0 20 20" fill="none" xmlns="http://www.w3.org/2000/svg">
<path fill-rule="evenodd" clip-rule="evenodd" d="M18.0781 3.78906C18.3228 2.63626 17.1514 1.67827 16.0158 2.10239L2.09527 7.30115C0.827073 7.77477 0.770565 9.48895 2.00499 10.0396L5.03648 11.3921L6.4786 16.2709C6.55351 16.5243 6.76156 16.7206 7.0255 16.7867C7.28945 16.8527 7.56989 16.779 7.76269 16.5925L9.98412 14.4453L13.0959 16.7012C13.9992 17.356 15.3002 16.8791 15.5271 15.8099L18.0781 3.78906ZM2.64996 8.68886L16.5704 3.49011L14.0194 15.5111L10.3737 12.868C10.0673 12.6459 9.6386 12.6754 9.36779 12.9371L8.41633 13.8568L8.70221 12.3371L14.3038 6.92255C14.5765 6.65904 14.6053 6.2412 14.3712 5.94505C14.1372 5.6489 13.7127 5.56583 13.3779 5.75072L5.64191 10.0236L2.64996 8.68886ZM6.58515 11.2161L7.05179 12.7948L7.23095 11.8423C7.25895 11.6935 7.33325 11.5564 7.44394 11.4494L9.15224 9.79824L6.58515 11.2161Z" fill="#E8F2FB"/>
</svg>
