<svg width="20" height="20" viewBox="0 0 20 20" fill="none" xmlns="http://www.w3.org/2000/svg">
<path d="M10.0322 2C5.64221 2 2.06432 5.56 2.06432 9.928C2.06432 11.328 2.43417 12.688 3.12563 13.888L2 18L6.22111 16.896C7.38693 17.528 8.69749 17.864 10.0322 17.864C14.4221 17.864 18 14.304 18 9.936C18 7.816 17.1719 5.824 15.6683 4.328C14.1648 2.824 12.1628 2 10.0322 2ZM10.0402 3.336C11.809 3.336 13.4653 4.024 14.7196 5.272C15.9658 6.52 16.6573 8.176 16.6573 9.936C16.6573 13.568 13.6824 16.52 10.0322 16.52C8.84221 16.52 7.67638 16.208 6.66332 15.6L6.42211 15.464L3.91357 16.12L4.5809 13.688L4.4201 13.432C3.7608 12.4 3.40704 11.176 3.40704 9.928C3.41508 6.296 6.38191 3.336 10.0402 3.336ZM7.21005 6.264C7.08141 6.264 6.86432 6.312 6.6794 6.512C6.50251 6.712 5.9799 7.2 5.9799 8.168C5.9799 9.144 6.69548 10.08 6.78392 10.216C6.89648 10.352 8.19899 12.352 10.201 13.2C10.6754 13.416 11.0452 13.536 11.3347 13.624C11.809 13.776 12.2432 13.752 12.5889 13.704C12.9749 13.648 13.7628 13.224 13.9317 12.76C14.1005 12.296 14.1005 11.904 14.0523 11.816C13.996 11.736 13.8673 11.688 13.6663 11.6C13.4653 11.488 12.4844 11.008 12.3075 10.944C12.1226 10.88 12.01 10.848 11.8573 11.04C11.7286 11.24 11.3427 11.688 11.2302 11.816C11.1095 11.952 10.997 11.968 10.804 11.872C10.595 11.768 9.95176 11.56 9.19598 10.888C8.601 10.36 8.20703 9.712 8.08643 9.512C7.98995 9.32 8.07839 9.2 8.17487 9.112C8.26332 9.024 8.39196 8.88 8.47236 8.76C8.57688 8.648 8.60905 8.56 8.67337 8.432C8.73769 8.296 8.70553 8.184 8.65729 8.088C8.60904 8 8.20704 7.008 8.03819 6.616C7.87739 6.232 7.71658 6.28 7.58794 6.272C7.47538 6.272 7.34673 6.264 7.21005 6.264Z" fill="#E8F2FB"/>
</svg>
