<svg width="30" height="30" viewBox="0 0 30 30" fill="none" xmlns="http://www.w3.org/2000/svg">
<path fill-rule="evenodd" clip-rule="evenodd" d="M15.5572 25.9344C13.1444 25.9344 12.0231 25.6034 10.0741 24.2797C8.84126 25.7689 4.9373 26.9327 4.76705 24.9415C4.76705 23.4468 4.41482 22.1837 4.01562 20.8047C3.5401 19.1059 3 17.214 3 14.4727C3 7.92554 8.71798 3 15.4927 3C22.2732 3 27.5861 8.16823 27.5861 14.5334C27.6089 20.8001 22.2271 25.9009 15.5572 25.9344ZM15.657 8.65913C12.3578 8.49917 9.78643 10.6448 9.21698 14.0094C8.74733 16.7948 9.58096 20.187 10.2913 20.3635C10.6318 20.4407 11.4889 19.7899 12.0231 19.2879C12.9065 19.8613 13.9352 20.2056 15.0054 20.2863C18.424 20.4408 21.3451 17.9955 21.5746 14.7871C21.7083 11.5719 19.0761 8.84864 15.657 8.66465L15.657 8.65913Z" fill="white"/>
</svg>
