<svg width="30" height="30" viewBox="0 0 30 30" fill="none" xmlns="http://www.w3.org/2000/svg">
<path d="M9.02222 13.6556C10.6222 16.8 13.2 19.3778 16.3444 20.9778L18.7889 18.5333C19.1 18.2222 19.5333 18.1333 19.9222 18.2556C21.1667 18.6667 22.5 18.8889 23.8889 18.8889C24.1836 18.8889 24.4662 19.006 24.6746 19.2143C24.8829 19.4227 25 19.7053 25 20V23.8889C25 24.1836 24.8829 24.4662 24.6746 24.6746C24.4662 24.8829 24.1836 25 23.8889 25C18.8792 25 14.0748 23.0099 10.5324 19.4676C6.99007 15.9252 5 11.1208 5 6.11111C5 5.81643 5.11706 5.53381 5.32544 5.32544C5.53381 5.11706 5.81643 5 6.11111 5H10C10.2947 5 10.5773 5.11706 10.7857 5.32544C10.994 5.53381 11.1111 5.81643 11.1111 6.11111C11.1111 7.5 11.3333 8.83333 11.7444 10.0778C11.8667 10.4667 11.7778 10.9 11.4667 11.2111L9.02222 13.6556Z" fill="white"/>
</svg>
