<svg width="30" height="30" viewBox="0 0 30 30" fill="none" xmlns="http://www.w3.org/2000/svg">
<path fill-rule="evenodd" clip-rule="evenodd" d="M25.6687 8.58145C26.0079 6.98304 24.3837 5.65473 22.8091 6.2428L3.50755 13.4512C1.74912 14.1079 1.67077 16.4847 3.38236 17.2482L7.58569 19.1235L9.58527 25.8882C9.68914 26.2396 9.9776 26.5117 10.3436 26.6034C10.7096 26.695 11.0984 26.5927 11.3657 26.3342L14.4459 23.3569L18.7606 26.4849C20.013 27.3928 21.8169 26.7315 22.1315 25.2491L25.6687 8.58145ZM4.27665 15.3753L23.5782 8.16695L20.041 24.8347L14.986 21.1699C14.5612 20.862 13.9668 20.9028 13.5913 21.2658L12.272 22.541L12.6684 20.4337L20.4354 12.9262C20.8134 12.5608 20.8533 11.9815 20.5288 11.5709C20.2044 11.1602 19.6157 11.0451 19.1515 11.3014L8.42516 17.226L4.27665 15.3753ZM9.73301 18.8794L10.38 21.0684L10.6284 19.7478C10.6673 19.5414 10.7703 19.3513 10.9238 19.203L13.2924 16.9135L9.73301 18.8794Z" fill="white"/>
</svg>
