<svg width="30" height="30" viewBox="0 0 30 30" fill="none" xmlns="http://www.w3.org/2000/svg">
<path d="M15.047 3.21423C8.57962 3.21423 3.30863 8.45888 3.30863 14.8939C3.30863 16.9564 3.85349 18.9599 4.87216 20.7278L3.21387 26.7857L9.43246 25.1592C11.15 26.0903 13.0807 26.5853 15.047 26.5853C21.5143 26.5853 26.7853 21.3407 26.7853 14.9057C26.7853 11.7824 25.5653 8.8478 23.3503 6.64388C21.1353 4.42816 18.1859 3.21423 15.047 3.21423ZM15.0588 5.18245C17.6647 5.18245 20.1047 6.19602 21.9526 8.03459C23.7885 9.87316 24.8072 12.3128 24.8072 14.9057C24.8072 20.2564 20.4246 24.6053 15.047 24.6053C13.2939 24.6053 11.5764 24.1457 10.0839 23.2499L9.72858 23.0496L6.03296 24.016L7.01609 20.4332L6.77919 20.056C5.80791 18.5357 5.28673 16.7324 5.28673 14.8939C5.29858 9.54316 9.66936 5.18245 15.0588 5.18245ZM10.8894 9.49602C10.6999 9.49602 10.3801 9.56673 10.1076 9.86138C9.84703 10.156 9.07711 10.8749 9.07711 12.301C9.07711 13.7389 10.1313 15.1178 10.2616 15.3182C10.4274 15.5185 12.3463 18.4649 15.2957 19.7142C15.9946 20.0324 16.5394 20.2092 16.9658 20.3389C17.6647 20.5628 18.3043 20.5274 18.8137 20.4567C19.3822 20.3742 20.543 19.7496 20.7918 19.066C21.0405 18.3824 21.0405 17.8049 20.9694 17.6753C20.8865 17.5574 20.697 17.4867 20.4009 17.3571C20.1047 17.1921 18.6597 16.4849 18.3991 16.3907C18.1266 16.2964 17.9608 16.2492 17.7358 16.5321C17.5462 16.8267 16.9777 17.4867 16.8119 17.6753C16.6342 17.8757 16.4684 17.8992 16.1841 17.7578C15.8761 17.6046 14.9285 17.2982 13.8151 16.3082C12.9386 15.5303 12.3582 14.5757 12.1805 14.281C12.0383 13.9982 12.1686 13.8214 12.3108 13.6917C12.4411 13.5621 12.6306 13.3499 12.749 13.1732C12.903 13.0082 12.9504 12.8785 13.0452 12.6899C13.1399 12.4896 13.0925 12.3246 13.0215 12.1832C12.9504 12.0535 12.3582 10.5921 12.1094 10.0146C11.8725 9.44888 11.6356 9.51959 11.4461 9.50781C11.2803 9.50781 11.0908 9.49602 10.8894 9.49602Z" fill="white"/>
</svg>
