<svg width="50" height="50" viewBox="0 0 50 50" fill="none" xmlns="http://www.w3.org/2000/svg">
<path d="M29.091 42.7293C29.091 42.3069 29.0949 41.8846 29.091 41.4629C29.091 41.323 29.1345 41.2461 29.271 41.196C30.8216 40.6312 32.3045 39.8957 33.6925 39.0031C34.7312 38.3293 35.7057 37.5613 36.6035 36.7088C37.7808 35.5945 38.7764 34.3409 39.6472 32.9815C40.9955 30.871 41.9349 28.5967 42.2981 26.1046C42.4305 25.2244 42.4776 24.3335 42.4385 23.4443C42.4151 22.9562 42.3271 22.4799 42.009 22.0793C41.8418 21.8709 41.6385 21.7868 41.3755 21.862C41.1873 21.9123 41.01 21.9967 40.8523 22.111C39.7313 22.9518 38.4599 23.4008 37.081 23.5646C35.6675 23.7318 34.2808 23.6365 32.9431 23.1055C32.0375 22.7395 31.2007 22.2219 30.4688 21.5751C29.6239 20.848 28.9018 19.9894 28.3305 19.0322C27.6628 17.9093 27.2474 16.6546 27.1131 15.3551C26.9906 14.2074 27.034 13.0708 27.2992 11.9404C27.5782 10.7541 28.0825 9.6325 28.7846 8.63649C29.6388 7.39737 30.731 6.34057 31.9976 5.52763C33.1322 4.80399 34.4073 4.32926 35.7389 4.13477C37.9117 3.8094 40.016 4.0668 42.0245 4.97661C43.0788 5.46133 44.0529 6.10406 44.9133 6.8826C45.7657 7.63415 46.5237 8.4863 47.1709 9.42039C48.1075 10.7837 48.7666 12.2735 49.1961 13.8681C49.5066 15.0431 49.7042 16.2451 49.7861 17.4578C49.8574 18.4251 49.8742 19.3957 49.8363 20.3649C49.7304 23.0498 49.2011 25.6489 48.1866 28.1421C47.3292 30.2368 46.1808 32.2002 44.7752 33.9743C43.9536 35.0196 43.044 35.9926 42.0563 36.8826C41.0248 37.8083 39.9299 38.661 38.7797 39.4343C37.4394 40.3346 36.0423 41.1475 34.5973 41.8679C33.1799 42.5788 31.7276 43.2179 30.246 43.7828C29.9212 43.9071 29.5947 44.0274 29.271 44.155C29.1373 44.2107 29.0877 44.1823 29.0899 44.0302C29.0955 43.5967 29.091 43.1627 29.091 42.7293Z" fill="#87878E"/>
<path d="M2.44187 42.7344C2.44187 42.3009 2.44577 41.8669 2.44187 41.4334C2.44187 41.3025 2.49313 41.2384 2.60901 41.1955C3.76257 40.7772 4.87893 40.2626 5.94631 39.6573C7.13404 38.987 8.25184 38.1997 9.28304 37.3072C10.5699 36.1846 11.7047 34.8988 12.6588 33.4824C13.9959 31.5051 14.9843 29.3763 15.4718 27.0296C15.651 26.1634 15.753 25.283 15.7766 24.3988C15.7972 23.9607 15.7827 23.5218 15.7331 23.0861C15.688 22.744 15.6055 22.4103 15.3899 22.1306C15.1386 21.8052 14.8885 21.7529 14.5185 21.9289C14.3008 22.0419 14.092 22.1713 13.894 22.3161C12.9223 22.9775 11.8442 23.3558 10.687 23.5235C9.56663 23.6856 8.44956 23.6956 7.33972 23.4349C6.07668 23.1379 4.96183 22.5435 3.97235 21.7167C3.01629 20.9155 2.20397 19.9895 1.58944 18.8964C0.981848 17.8262 0.596947 16.6442 0.457881 15.4215C0.293524 13.9802 0.39771 12.5628 0.847882 11.1794C1.22626 10.0273 1.81488 8.95522 2.58394 8.0176C3.14893 7.31575 3.79171 6.68025 4.49996 6.12331C5.72977 5.15571 7.17255 4.49525 8.70863 4.1967C9.38003 4.06422 10.0629 3.99835 10.7472 4.00003C12.9396 4.00003 14.9737 4.56832 16.814 5.78289C17.815 6.45277 18.7234 7.25173 19.5156 8.15911C21.1441 9.99769 22.1486 12.1416 22.6879 14.5206C22.9634 15.7681 23.1247 17.038 23.1699 18.3147C23.2052 19.1179 23.2002 19.9223 23.1548 20.7249C23.0512 22.5949 22.7281 24.4462 22.1921 26.2407C21.7529 27.6945 21.1668 29.0999 20.4426 30.4349C19.6409 31.9219 18.686 33.321 17.5934 34.6095C16.5301 35.8544 15.348 36.9926 14.0639 38.0081C12.529 39.2338 10.8837 40.2835 9.16103 41.2239C7.05725 42.3744 4.85932 43.3216 2.61291 44.1562C2.47697 44.2063 2.44131 44.1707 2.44243 44.0353C2.44689 43.6018 2.44243 43.1678 2.44243 42.7344H2.44187Z" fill="#87878E"/>
</svg>
